solid ascii
  facet normal 9.992290e-001 -3.925982e-002 0.000000e+000
    outer loop
      vertex   1.651000e+001 -1.878330e+001 2.540000e+000
      vertex   1.649943e+001 -1.905234e+001 2.540000e+000
      vertex   1.651000e+001 -1.878330e+001 0.000000e+000
    endloop
  endfacet
  facet normal 9.992290e-001 -3.925982e-002 0.000000e+000
    outer loop
      vertex   1.651000e+001 -1.878330e+001 0.000000e+000
      vertex   1.649943e+001 -1.905234e+001 2.540000e+000
      vertex   1.649943e+001 -1.905234e+001 0.000000e+000
    endloop
  endfacet
  facet normal 9.930685e-001 -1.175374e-001 0.000000e+000
    outer loop
      vertex   1.649943e+001 -1.905234e+001 0.000000e+000
      vertex   1.649943e+001 -1.905234e+001 2.540000e+000
      vertex   1.646778e+001 -1.931971e+001 2.540000e+000
    endloop
  endfacet
  facet normal 9.807853e-001 -1.950903e-001 0.000000e+000
    outer loop
      vertex   1.646778e+001 -1.931971e+001 0.000000e+000
      vertex   1.646778e+001 -1.931971e+001 2.540000e+000
      vertex   1.641526e+001 -1.958378e+001 2.540000e+000
    endloop
  endfacet
  facet normal 9.624552e-001 -2.714404e-001 0.000000e+000
    outer loop
      vertex   1.641526e+001 -1.958378e+001 0.000000e+000
      vertex   1.641526e+001 -1.958378e+001 2.540000e+000
      vertex   1.634217e+001 -1.984292e+001 2.540000e+000
    endloop
  endfacet
  facet normal 9.381913e-001 -3.461171e-001 0.000000e+000
    outer loop
      vertex   1.634217e+001 -1.984292e+001 0.000000e+000
      vertex   1.634217e+001 -1.984292e+001 2.540000e+000
      vertex   1.624898e+001 -2.009552e+001 2.540000e+000
    endloop
  endfacet
  facet normal 9.081432e-001 -4.186597e-001 0.000000e+000
    outer loop
      vertex   1.624898e+001 -2.009552e+001 0.000000e+000
      vertex   1.624898e+001 -2.009552e+001 2.540000e+000
      vertex   1.613626e+001 -2.034003e+001 2.540000e+000
    endloop
  endfacet
  facet normal 8.724960e-001 -4.886212e-001 0.000000e+000
    outer loop
      vertex   1.613626e+001 -2.034003e+001 0.000000e+000
      vertex   1.613626e+001 -2.034003e+001 2.540000e+000
      vertex   1.600470e+001 -2.057495e+001 2.540000e+000
    endloop
  endfacet
  facet normal 8.314696e-001 -5.555702e-001 0.000000e+000
    outer loop
      vertex   1.600470e+001 -2.057495e+001 0.000000e+000
      vertex   1.600470e+001 -2.057495e+001 2.540000e+000
      vertex   1.585512e+001 -2.079882e+001 2.540000e+000
    endloop
  endfacet
  facet normal 7.853169e-001 -6.190939e-001 0.000000e+000
    outer loop
      vertex   1.585512e+001 -2.079882e+001 0.000000e+000
      vertex   1.585512e+001 -2.079882e+001 2.540000e+000
      vertex   1.568843e+001 -2.101026e+001 2.540000e+000
    endloop
  endfacet
  facet normal 7.343225e-001 -6.788007e-001 0.000000e+000
    outer loop
      vertex   1.568843e+001 -2.101026e+001 0.000000e+000
      vertex   1.568843e+001 -2.101026e+001 2.540000e+000
      vertex   1.550567e+001 -2.120797e+001 0.000000e+000
    endloop
  endfacet
  facet normal 7.853169e-001 -6.190939e-001 0.000000e+000
    outer loop
      vertex   1.568843e+001 -2.101026e+001 0.000000e+000
      vertex   1.585512e+001 -2.079882e+001 0.000000e+000
      vertex   1.568843e+001 -2.101026e+001 2.540000e+000
    endloop
  endfacet
  facet normal 9.930685e-001 -1.175374e-001 0.000000e+000
    outer loop
      vertex   1.649943e+001 -1.905234e+001 0.000000e+000
      vertex   1.646778e+001 -1.931971e+001 2.540000e+000
      vertex   1.646778e+001 -1.931971e+001 0.000000e+000
    endloop
  endfacet
  facet normal 9.807853e-001 -1.950903e-001 0.000000e+000
    outer loop
      vertex   1.646778e+001 -1.931971e+001 0.000000e+000
      vertex   1.641526e+001 -1.958378e+001 2.540000e+000
      vertex   1.641526e+001 -1.958378e+001 0.000000e+000
    endloop
  endfacet
  facet normal 9.624552e-001 -2.714404e-001 0.000000e+000
    outer loop
      vertex   1.641526e+001 -1.958378e+001 0.000000e+000
      vertex   1.634217e+001 -1.984292e+001 2.540000e+000
      vertex   1.634217e+001 -1.984292e+001 0.000000e+000
    endloop
  endfacet
  facet normal 9.381913e-001 -3.461171e-001 0.000000e+000
    outer loop
      vertex   1.634217e+001 -1.984292e+001 0.000000e+000
      vertex   1.624898e+001 -2.009552e+001 2.540000e+000
      vertex   1.624898e+001 -2.009552e+001 0.000000e+000
    endloop
  endfacet
  facet normal 9.081432e-001 -4.186597e-001 0.000000e+000
    outer loop
      vertex   1.624898e+001 -2.009552e+001 0.000000e+000
      vertex   1.613626e+001 -2.034003e+001 2.540000e+000
      vertex   1.613626e+001 -2.034003e+001 0.000000e+000
    endloop
  endfacet
  facet normal 8.724960e-001 -4.886212e-001 0.000000e+000
    outer loop
      vertex   1.613626e+001 -2.034003e+001 0.000000e+000
      vertex   1.600470e+001 -2.057495e+001 2.540000e+000
      vertex   1.600470e+001 -2.057495e+001 0.000000e+000
    endloop
  endfacet
  facet normal 8.314696e-001 -5.555702e-001 0.000000e+000
    outer loop
      vertex   1.600470e+001 -2.057495e+001 0.000000e+000
      vertex   1.585512e+001 -2.079882e+001 2.540000e+000
      vertex   1.585512e+001 -2.079882e+001 0.000000e+000
    endloop
  endfacet
  facet normal 7.343225e-001 -6.788007e-001 0.000000e+000
    outer loop
      vertex   1.568843e+001 -2.101026e+001 2.540000e+000
      vertex   1.550567e+001 -2.120797e+001 2.540000e+000
      vertex   1.550567e+001 -2.120797e+001 0.000000e+000
    endloop
  endfacet
  facet normal 6.788007e-001 -7.343225e-001 0.000000e+000
    outer loop
      vertex   1.550567e+001 -2.120797e+001 0.000000e+000
      vertex   1.550567e+001 -2.120797e+001 2.540000e+000
      vertex   1.530796e+001 -2.139073e+001 0.000000e+000
    endloop
  endfacet
  facet normal 6.788007e-001 -7.343225e-001 0.000000e+000
    outer loop
      vertex   1.530796e+001 -2.139073e+001 0.000000e+000
      vertex   1.550567e+001 -2.120797e+001 2.540000e+000
      vertex   1.530796e+001 -2.139073e+001 2.540000e+000
    endloop
  endfacet
  facet normal 6.190939e-001 -7.853169e-001 0.000000e+000
    outer loop
      vertex   1.509652e+001 -2.155742e+001 2.540000e+000
      vertex   1.530796e+001 -2.139073e+001 0.000000e+000
      vertex   1.530796e+001 -2.139073e+001 2.540000e+000
    endloop
  endfacet
  facet normal 6.190939e-001 -7.853169e-001 0.000000e+000
    outer loop
      vertex   1.509652e+001 -2.155742e+001 2.540000e+000
      vertex   1.509652e+001 -2.155742e+001 0.000000e+000
      vertex   1.530796e+001 -2.139073e+001 0.000000e+000
    endloop
  endfacet
  facet normal 5.555702e-001 -8.314696e-001 0.000000e+000
    outer loop
      vertex   1.509652e+001 -2.155742e+001 2.540000e+000
      vertex   1.487265e+001 -2.170700e+001 2.540000e+000
      vertex   1.509652e+001 -2.155742e+001 0.000000e+000
    endloop
  endfacet
  facet normal 5.555702e-001 -8.314696e-001 0.000000e+000
    outer loop
      vertex   1.509652e+001 -2.155742e+001 0.000000e+000
      vertex   1.487265e+001 -2.170700e+001 2.540000e+000
      vertex   1.487265e+001 -2.170700e+001 0.000000e+000
    endloop
  endfacet
  facet normal 4.886212e-001 -8.724960e-001 0.000000e+000
    outer loop
      vertex   1.487265e+001 -2.170700e+001 0.000000e+000
      vertex   1.487265e+001 -2.170700e+001 2.540000e+000
      vertex   1.463773e+001 -2.183856e+001 2.540000e+000
    endloop
  endfacet
  facet normal 4.186597e-001 -9.081432e-001 0.000000e+000
    outer loop
      vertex   1.463773e+001 -2.183856e+001 0.000000e+000
      vertex   1.463773e+001 -2.183856e+001 2.540000e+000
      vertex   1.439322e+001 -2.195128e+001 2.540000e+000
    endloop
  endfacet
  facet normal 3.461171e-001 -9.381913e-001 0.000000e+000
    outer loop
      vertex   1.439322e+001 -2.195128e+001 0.000000e+000
      vertex   1.439322e+001 -2.195128e+001 2.540000e+000
      vertex   1.414062e+001 -2.204447e+001 2.540000e+000
    endloop
  endfacet
  facet normal 2.714404e-001 -9.624552e-001 0.000000e+000
    outer loop
      vertex   1.414062e+001 -2.204447e+001 0.000000e+000
      vertex   1.414062e+001 -2.204447e+001 2.540000e+000
      vertex   1.388148e+001 -2.211756e+001 2.540000e+000
    endloop
  endfacet
  facet normal 1.950903e-001 -9.807853e-001 0.000000e+000
    outer loop
      vertex   1.388148e+001 -2.211756e+001 0.000000e+000
      vertex   1.388148e+001 -2.211756e+001 2.540000e+000
      vertex   1.361741e+001 -2.217008e+001 2.540000e+000
    endloop
  endfacet
  facet normal 1.175374e-001 -9.930685e-001 0.000000e+000
    outer loop
      vertex   1.361741e+001 -2.217008e+001 0.000000e+000
      vertex   1.361741e+001 -2.217008e+001 2.540000e+000
      vertex   1.335004e+001 -2.220173e+001 2.540000e+000
    endloop
  endfacet
  facet normal 3.925982e-002 -9.992290e-001 0.000000e+000
    outer loop
      vertex   1.335004e+001 -2.220173e+001 0.000000e+000
      vertex   1.335004e+001 -2.220173e+001 2.540000e+000
      vertex   1.308100e+001 -2.221230e+001 2.540000e+000
    endloop
  endfacet
  facet normal 3.925982e-002 -9.992290e-001 0.000000e+000
    outer loop
      vertex   1.308100e+001 -2.221230e+001 0.000000e+000
      vertex   1.335004e+001 -2.220173e+001 0.000000e+000
      vertex   1.308100e+001 -2.221230e+001 2.540000e+000
    endloop
  endfacet
  facet normal 4.886212e-001 -8.724960e-001 0.000000e+000
    outer loop
      vertex   1.487265e+001 -2.170700e+001 0.000000e+000
      vertex   1.463773e+001 -2.183856e+001 2.540000e+000
      vertex   1.463773e+001 -2.183856e+001 0.000000e+000
    endloop
  endfacet
  facet normal 4.186597e-001 -9.081432e-001 0.000000e+000
    outer loop
      vertex   1.463773e+001 -2.183856e+001 0.000000e+000
      vertex   1.439322e+001 -2.195128e+001 2.540000e+000
      vertex   1.439322e+001 -2.195128e+001 0.000000e+000
    endloop
  endfacet
  facet normal 3.461171e-001 -9.381913e-001 0.000000e+000
    outer loop
      vertex   1.439322e+001 -2.195128e+001 0.000000e+000
      vertex   1.414062e+001 -2.204447e+001 2.540000e+000
      vertex   1.414062e+001 -2.204447e+001 0.000000e+000
    endloop
  endfacet
  facet normal 2.714404e-001 -9.624552e-001 0.000000e+000
    outer loop
      vertex   1.414062e+001 -2.204447e+001 0.000000e+000
      vertex   1.388148e+001 -2.211756e+001 2.540000e+000
      vertex   1.388148e+001 -2.211756e+001 0.000000e+000
    endloop
  endfacet
  facet normal 1.950903e-001 -9.807853e-001 0.000000e+000
    outer loop
      vertex   1.388148e+001 -2.211756e+001 0.000000e+000
      vertex   1.361741e+001 -2.217008e+001 2.540000e+000
      vertex   1.361741e+001 -2.217008e+001 0.000000e+000
    endloop
  endfacet
  facet normal 1.175374e-001 -9.930685e-001 0.000000e+000
    outer loop
      vertex   1.361741e+001 -2.217008e+001 0.000000e+000
      vertex   1.335004e+001 -2.220173e+001 2.540000e+000
      vertex   1.335004e+001 -2.220173e+001 0.000000e+000
    endloop
  endfacet
  facet normal 0.000000e+000 0.000000e+000 -1.000000e+000
    outer loop
      vertex   1.649943e+001 -1.905234e+001 0.000000e+000
      vertex   -1.649943e+001 -1.905234e+001 0.000000e+000
      vertex   1.651000e+001 -1.878330e+001 0.000000e+000
    endloop
  endfacet
  facet normal -0.000000e+000 0.000000e+000 -1.000000e+000
    outer loop
      vertex   1.649943e+001 -1.905234e+001 0.000000e+000
      vertex   -1.646778e+001 -1.931971e+001 0.000000e+000
      vertex   -1.649943e+001 -1.905234e+001 0.000000e+000
    endloop
  endfacet
  facet normal -0.000000e+000 0.000000e+000 -1.000000e+000
    outer loop
      vertex   1.649943e+001 -1.905234e+001 0.000000e+000
      vertex   1.646778e+001 -1.931971e+001 0.000000e+000
      vertex   -1.646778e+001 -1.931971e+001 0.000000e+000
    endloop
  endfacet
  facet normal 0.000000e+000 -0.000000e+000 -1.000000e+000
    outer loop
      vertex   -1.646778e+001 -1.931971e+001 0.000000e+000
      vertex   1.646778e+001 -1.931971e+001 0.000000e+000
      vertex   -1.641526e+001 -1.958378e+001 0.000000e+000
    endloop
  endfacet
  facet normal 0.000000e+000 -0.000000e+000 -1.000000e+000
    outer loop
      vertex   -1.641526e+001 -1.958378e+001 0.000000e+000
      vertex   1.646778e+001 -1.931971e+001 0.000000e+000
      vertex   1.641526e+001 -1.958378e+001 0.000000e+000
    endloop
  endfacet
  facet normal 0.000000e+000 -0.000000e+000 -1.000000e+000
    outer loop
      vertex   -1.634217e+001 -1.984292e+001 0.000000e+000
      vertex   1.641526e+001 -1.958378e+001 0.000000e+000
      vertex   1.634217e+001 -1.984292e+001 0.000000e+000
    endloop
  endfacet
  facet normal 0.000000e+000 -0.000000e+000 -1.000000e+000
    outer loop
      vertex   -1.624898e+001 -2.009552e+001 0.000000e+000
      vertex   1.634217e+001 -1.984292e+001 0.000000e+000
      vertex   1.624898e+001 -2.009552e+001 0.000000e+000
    endloop
  endfacet
  facet normal 0.000000e+000 -0.000000e+000 -1.000000e+000
    outer loop
      vertex   -1.613626e+001 -2.034003e+001 0.000000e+000
      vertex   1.624898e+001 -2.009552e+001 0.000000e+000
      vertex   1.613626e+001 -2.034003e+001 0.000000e+000
    endloop
  endfacet
  facet normal 0.000000e+000 -0.000000e+000 -1.000000e+000
    outer loop
      vertex   -1.600470e+001 -2.057495e+001 0.000000e+000
      vertex   1.613626e+001 -2.034003e+001 0.000000e+000
      vertex   1.600470e+001 -2.057495e+001 0.000000e+000
    endloop
  endfacet
  facet normal 0.000000e+000 -0.000000e+000 -1.000000e+000
    outer loop
      vertex   -1.585512e+001 -2.079882e+001 0.000000e+000
      vertex   1.600470e+001 -2.057495e+001 0.000000e+000
      vertex   1.585512e+001 -2.079882e+001 0.000000e+000
    endloop
  endfacet
  facet normal 0.000000e+000 -0.000000e+000 -1.000000e+000
    outer loop
      vertex   -1.568843e+001 -2.101026e+001 0.000000e+000
      vertex   1.585512e+001 -2.079882e+001 0.000000e+000
      vertex   1.568843e+001 -2.101026e+001 0.000000e+000
    endloop
  endfacet
  facet normal 0.000000e+000 -0.000000e+000 -1.000000e+000
    outer loop
      vertex   -1.550567e+001 -2.120797e+001 0.000000e+000
      vertex   1.568843e+001 -2.101026e+001 0.000000e+000
      vertex   1.550567e+001 -2.120797e+001 0.000000e+000
    endloop
  endfacet
  facet normal 0.000000e+000 -0.000000e+000 -1.000000e+000
    outer loop
      vertex   -1.530796e+001 -2.139073e+001 0.000000e+000
      vertex   1.550567e+001 -2.120797e+001 0.000000e+000
      vertex   1.530796e+001 -2.139073e+001 0.000000e+000
    endloop
  endfacet
  facet normal 0.000000e+000 -0.000000e+000 -1.000000e+000
    outer loop
      vertex   -1.509652e+001 -2.155742e+001 0.000000e+000
      vertex   1.530796e+001 -2.139073e+001 0.000000e+000
      vertex   1.509652e+001 -2.155742e+001 0.000000e+000
    endloop
  endfacet
  facet normal 0.000000e+000 -0.000000e+000 -1.000000e+000
    outer loop
      vertex   -1.487265e+001 -2.170700e+001 0.000000e+000
      vertex   1.509652e+001 -2.155742e+001 0.000000e+000
      vertex   1.487265e+001 -2.170700e+001 0.000000e+000
    endloop
  endfacet
  facet normal 0.000000e+000 -0.000000e+000 -1.000000e+000
    outer loop
      vertex   -1.463773e+001 -2.183856e+001 0.000000e+000
      vertex   1.487265e+001 -2.170700e+001 0.000000e+000
      vertex   1.463773e+001 -2.183856e+001 0.000000e+000
    endloop
  endfacet
  facet normal 0.000000e+000 -0.000000e+000 -1.000000e+000
    outer loop
      vertex   -1.439322e+001 -2.195128e+001 0.000000e+000
      vertex   1.463773e+001 -2.183856e+001 0.000000e+000
      vertex   1.439322e+001 -2.195128e+001 0.000000e+000
    endloop
  endfacet
  facet normal 0.000000e+000 -0.000000e+000 -1.000000e+000
    outer loop
      vertex   -1.414062e+001 -2.204447e+001 0.000000e+000
      vertex   1.439322e+001 -2.195128e+001 0.000000e+000
      vertex   1.414062e+001 -2.204447e+001 0.000000e+000
    endloop
  endfacet
  facet normal 0.000000e+000 -0.000000e+000 -1.000000e+000
    outer loop
      vertex   -1.388148e+001 -2.211756e+001 0.000000e+000
      vertex   1.414062e+001 -2.204447e+001 0.000000e+000
      vertex   1.388148e+001 -2.211756e+001 0.000000e+000
    endloop
  endfacet
  facet normal 0.000000e+000 -0.000000e+000 -1.000000e+000
    outer loop
      vertex   -1.361741e+001 -2.217008e+001 0.000000e+000
      vertex   1.388148e+001 -2.211756e+001 0.000000e+000
      vertex   1.361741e+001 -2.217008e+001 0.000000e+000
    endloop
  endfacet
  facet normal 0.000000e+000 -0.000000e+000 -1.000000e+000
    outer loop
      vertex   -1.335004e+001 -2.220173e+001 0.000000e+000
      vertex   1.361741e+001 -2.217008e+001 0.000000e+000
      vertex   1.335004e+001 -2.220173e+001 0.000000e+000
    endloop
  endfacet
  facet normal 0.000000e+000 -0.000000e+000 -1.000000e+000
    outer loop
      vertex   -1.308100e+001 -2.221230e+001 0.000000e+000
      vertex   1.335004e+001 -2.220173e+001 0.000000e+000
      vertex   1.308100e+001 -2.221230e+001 0.000000e+000
    endloop
  endfacet
  facet normal 0.000000e+000 0.000000e+000 -1.000000e+000
    outer loop
      vertex   -1.308100e+001 -2.221230e+001 0.000000e+000
      vertex   -1.335004e+001 -2.220173e+001 0.000000e+000
      vertex   1.335004e+001 -2.220173e+001 0.000000e+000
    endloop
  endfacet
  facet normal 0.000000e+000 -0.000000e+000 -1.000000e+000
    outer loop
      vertex   -1.641526e+001 -1.958378e+001 0.000000e+000
      vertex   1.641526e+001 -1.958378e+001 0.000000e+000
      vertex   -1.634217e+001 -1.984292e+001 0.000000e+000
    endloop
  endfacet
  facet normal 0.000000e+000 -0.000000e+000 -1.000000e+000
    outer loop
      vertex   -1.634217e+001 -1.984292e+001 0.000000e+000
      vertex   1.634217e+001 -1.984292e+001 0.000000e+000
      vertex   -1.624898e+001 -2.009552e+001 0.000000e+000
    endloop
  endfacet
  facet normal 0.000000e+000 -0.000000e+000 -1.000000e+000
    outer loop
      vertex   -1.624898e+001 -2.009552e+001 0.000000e+000
      vertex   1.624898e+001 -2.009552e+001 0.000000e+000
      vertex   -1.613626e+001 -2.034003e+001 0.000000e+000
    endloop
  endfacet
  facet normal 0.000000e+000 -0.000000e+000 -1.000000e+000
    outer loop
      vertex   -1.613626e+001 -2.034003e+001 0.000000e+000
      vertex   1.613626e+001 -2.034003e+001 0.000000e+000
      vertex   -1.600470e+001 -2.057495e+001 0.000000e+000
    endloop
  endfacet
  facet normal 0.000000e+000 -0.000000e+000 -1.000000e+000
    outer loop
      vertex   -1.600470e+001 -2.057495e+001 0.000000e+000
      vertex   1.600470e+001 -2.057495e+001 0.000000e+000
      vertex   -1.585512e+001 -2.079882e+001 0.000000e+000
    endloop
  endfacet
  facet normal 0.000000e+000 -0.000000e+000 -1.000000e+000
    outer loop
      vertex   -1.585512e+001 -2.079882e+001 0.000000e+000
      vertex   1.585512e+001 -2.079882e+001 0.000000e+000
      vertex   -1.568843e+001 -2.101026e+001 0.000000e+000
    endloop
  endfacet
  facet normal 0.000000e+000 -0.000000e+000 -1.000000e+000
    outer loop
      vertex   -1.568843e+001 -2.101026e+001 0.000000e+000
      vertex   1.568843e+001 -2.101026e+001 0.000000e+000
      vertex   -1.550567e+001 -2.120797e+001 0.000000e+000
    endloop
  endfacet
  facet normal 0.000000e+000 -0.000000e+000 -1.000000e+000
    outer loop
      vertex   -1.550567e+001 -2.120797e+001 0.000000e+000
      vertex   1.550567e+001 -2.120797e+001 0.000000e+000
      vertex   -1.530796e+001 -2.139073e+001 0.000000e+000
    endloop
  endfacet
  facet normal 0.000000e+000 -0.000000e+000 -1.000000e+000
    outer loop
      vertex   -1.530796e+001 -2.139073e+001 0.000000e+000
      vertex   1.530796e+001 -2.139073e+001 0.000000e+000
      vertex   -1.509652e+001 -2.155742e+001 0.000000e+000
    endloop
  endfacet
  facet normal 0.000000e+000 -0.000000e+000 -1.000000e+000
    outer loop
      vertex   -1.509652e+001 -2.155742e+001 0.000000e+000
      vertex   1.509652e+001 -2.155742e+001 0.000000e+000
      vertex   -1.487265e+001 -2.170700e+001 0.000000e+000
    endloop
  endfacet
  facet normal 0.000000e+000 -0.000000e+000 -1.000000e+000
    outer loop
      vertex   -1.487265e+001 -2.170700e+001 0.000000e+000
      vertex   1.487265e+001 -2.170700e+001 0.000000e+000
      vertex   -1.463773e+001 -2.183856e+001 0.000000e+000
    endloop
  endfacet
  facet normal 0.000000e+000 -0.000000e+000 -1.000000e+000
    outer loop
      vertex   -1.463773e+001 -2.183856e+001 0.000000e+000
      vertex   1.463773e+001 -2.183856e+001 0.000000e+000
      vertex   -1.439322e+001 -2.195128e+001 0.000000e+000
    endloop
  endfacet
  facet normal 0.000000e+000 -0.000000e+000 -1.000000e+000
    outer loop
      vertex   -1.439322e+001 -2.195128e+001 0.000000e+000
      vertex   1.439322e+001 -2.195128e+001 0.000000e+000
      vertex   -1.414062e+001 -2.204447e+001 0.000000e+000
    endloop
  endfacet
  facet normal 0.000000e+000 -0.000000e+000 -1.000000e+000
    outer loop
      vertex   -1.414062e+001 -2.204447e+001 0.000000e+000
      vertex   1.414062e+001 -2.204447e+001 0.000000e+000
      vertex   -1.388148e+001 -2.211756e+001 0.000000e+000
    endloop
  endfacet
  facet normal 0.000000e+000 -0.000000e+000 -1.000000e+000
    outer loop
      vertex   -1.388148e+001 -2.211756e+001 0.000000e+000
      vertex   1.388148e+001 -2.211756e+001 0.000000e+000
      vertex   -1.361741e+001 -2.217008e+001 0.000000e+000
    endloop
  endfacet
  facet normal 0.000000e+000 -0.000000e+000 -1.000000e+000
    outer loop
      vertex   -1.361741e+001 -2.217008e+001 0.000000e+000
      vertex   1.361741e+001 -2.217008e+001 0.000000e+000
      vertex   -1.335004e+001 -2.220173e+001 0.000000e+000
    endloop
  endfacet
  facet normal 0.000000e+000 0.000000e+000 -1.000000e+000
    outer loop
      vertex   -1.649943e+001 -1.905234e+001 0.000000e+000
      vertex   -1.651000e+001 -1.878330e+001 0.000000e+000
      vertex   1.651000e+001 -1.878330e+001 0.000000e+000
    endloop
  endfacet
  facet normal 0.000000e+000 0.000000e+000 -1.000000e+000
    outer loop
      vertex   1.651000e+001 -1.878330e+001 0.000000e+000
      vertex   -1.651000e+001 -1.878330e+001 0.000000e+000
      vertex   1.651000e+001 1.878330e+001 0.000000e+000
    endloop
  endfacet
  facet normal -0.000000e+000 0.000000e+000 -1.000000e+000
    outer loop
      vertex   1.651000e+001 1.878330e+001 0.000000e+000
      vertex   -1.651000e+001 -1.878330e+001 0.000000e+000
      vertex   -1.651000e+001 1.878330e+001 0.000000e+000
    endloop
  endfacet
  facet normal -0.000000e+000 0.000000e+000 -1.000000e+000
    outer loop
      vertex   1.649943e+001 1.905234e+001 0.000000e+000
      vertex   -1.651000e+001 1.878330e+001 0.000000e+000
      vertex   -1.649943e+001 1.905234e+001 0.000000e+000
    endloop
  endfacet
  facet normal -0.000000e+000 0.000000e+000 -1.000000e+000
    outer loop
      vertex   1.646778e+001 1.931971e+001 0.000000e+000
      vertex   -1.649943e+001 1.905234e+001 0.000000e+000
      vertex   -1.646778e+001 1.931971e+001 0.000000e+000
    endloop
  endfacet
  facet normal -0.000000e+000 0.000000e+000 -1.000000e+000
    outer loop
      vertex   1.308100e+001 2.221230e+001 0.000000e+000
      vertex   -1.646778e+001 1.931971e+001 0.000000e+000
      vertex   -1.308100e+001 2.221230e+001 0.000000e+000
    endloop
  endfacet
  facet normal -0.000000e+000 -0.000000e+000 -1.000000e+000
    outer loop
      vertex   1.308100e+001 2.221230e+001 0.000000e+000
      vertex   1.646778e+001 1.931971e+001 0.000000e+000
      vertex   -1.646778e+001 1.931971e+001 0.000000e+000
    endloop
  endfacet
  facet normal 0.000000e+000 0.000000e+000 -1.000000e+000
    outer loop
      vertex   1.308100e+001 2.221230e+001 0.000000e+000
      vertex   1.335004e+001 2.220173e+001 0.000000e+000
      vertex   1.646778e+001 1.931971e+001 0.000000e+000
    endloop
  endfacet
  facet normal 0.000000e+000 0.000000e+000 -1.000000e+000
    outer loop
      vertex   1.646778e+001 1.931971e+001 0.000000e+000
      vertex   1.335004e+001 2.220173e+001 0.000000e+000
      vertex   1.361741e+001 2.217008e+001 0.000000e+000
    endloop
  endfacet
  facet normal -0.000000e+000 -0.000000e+000 -1.000000e+000
    outer loop
      vertex   1.388148e+001 2.211756e+001 0.000000e+000
      vertex   1.646778e+001 1.931971e+001 0.000000e+000
      vertex   1.361741e+001 2.217008e+001 0.000000e+000
    endloop
  endfacet
  facet normal 0.000000e+000 0.000000e+000 -1.000000e+000
    outer loop
      vertex   1.388148e+001 2.211756e+001 0.000000e+000
      vertex   1.414062e+001 2.204447e+001 0.000000e+000
      vertex   1.646778e+001 1.931971e+001 0.000000e+000
    endloop
  endfacet
  facet normal 0.000000e+000 0.000000e+000 -1.000000e+000
    outer loop
      vertex   1.646778e+001 1.931971e+001 0.000000e+000
      vertex   1.414062e+001 2.204447e+001 0.000000e+000
      vertex   1.439322e+001 2.195128e+001 0.000000e+000
    endloop
  endfacet
  facet normal -0.000000e+000 -0.000000e+000 -1.000000e+000
    outer loop
      vertex   1.463773e+001 2.183856e+001 0.000000e+000
      vertex   1.646778e+001 1.931971e+001 0.000000e+000
      vertex   1.439322e+001 2.195128e+001 0.000000e+000
    endloop
  endfacet
  facet normal 0.000000e+000 0.000000e+000 -1.000000e+000
    outer loop
      vertex   1.463773e+001 2.183856e+001 0.000000e+000
      vertex   1.487265e+001 2.170700e+001 0.000000e+000
      vertex   1.646778e+001 1.931971e+001 0.000000e+000
    endloop
  endfacet
  facet normal 0.000000e+000 0.000000e+000 -1.000000e+000
    outer loop
      vertex   1.646778e+001 1.931971e+001 0.000000e+000
      vertex   1.487265e+001 2.170700e+001 0.000000e+000
      vertex   1.509652e+001 2.155742e+001 0.000000e+000
    endloop
  endfacet
  facet normal -0.000000e+000 -0.000000e+000 -1.000000e+000
    outer loop
      vertex   1.530796e+001 2.139073e+001 0.000000e+000
      vertex   1.646778e+001 1.931971e+001 0.000000e+000
      vertex   1.509652e+001 2.155742e+001 0.000000e+000
    endloop
  endfacet
  facet normal 0.000000e+000 0.000000e+000 -1.000000e+000
    outer loop
      vertex   1.530796e+001 2.139073e+001 0.000000e+000
      vertex   1.550567e+001 2.120797e+001 0.000000e+000
      vertex   1.646778e+001 1.931971e+001 0.000000e+000
    endloop
  endfacet
  facet normal 0.000000e+000 0.000000e+000 -1.000000e+000
    outer loop
      vertex   1.646778e+001 1.931971e+001 0.000000e+000
      vertex   1.550567e+001 2.120797e+001 0.000000e+000
      vertex   1.568843e+001 2.101026e+001 0.000000e+000
    endloop
  endfacet
  facet normal -0.000000e+000 -0.000000e+000 -1.000000e+000
    outer loop
      vertex   1.585512e+001 2.079882e+001 0.000000e+000
      vertex   1.646778e+001 1.931971e+001 0.000000e+000
      vertex   1.568843e+001 2.101026e+001 0.000000e+000
    endloop
  endfacet
  facet normal 0.000000e+000 0.000000e+000 -1.000000e+000
    outer loop
      vertex   1.585512e+001 2.079882e+001 0.000000e+000
      vertex   1.600470e+001 2.057495e+001 0.000000e+000
      vertex   1.646778e+001 1.931971e+001 0.000000e+000
    endloop
  endfacet
  facet normal 0.000000e+000 0.000000e+000 -1.000000e+000
    outer loop
      vertex   1.646778e+001 1.931971e+001 0.000000e+000
      vertex   1.600470e+001 2.057495e+001 0.000000e+000
      vertex   1.613626e+001 2.034003e+001 0.000000e+000
    endloop
  endfacet
  facet normal -0.000000e+000 -0.000000e+000 -1.000000e+000
    outer loop
      vertex   1.624898e+001 2.009552e+001 0.000000e+000
      vertex   1.646778e+001 1.931971e+001 0.000000e+000
      vertex   1.613626e+001 2.034003e+001 0.000000e+000
    endloop
  endfacet
  facet normal 0.000000e+000 0.000000e+000 -1.000000e+000
    outer loop
      vertex   1.624898e+001 2.009552e+001 0.000000e+000
      vertex   1.634217e+001 1.984292e+001 0.000000e+000
      vertex   1.646778e+001 1.931971e+001 0.000000e+000
    endloop
  endfacet
  facet normal 0.000000e+000 0.000000e+000 -1.000000e+000
    outer loop
      vertex   1.646778e+001 1.931971e+001 0.000000e+000
      vertex   1.634217e+001 1.984292e+001 0.000000e+000
      vertex   1.641526e+001 1.958378e+001 0.000000e+000
    endloop
  endfacet
  facet normal 0.000000e+000 0.000000e+000 -1.000000e+000
    outer loop
      vertex   1.651000e+001 1.878330e+001 0.000000e+000
      vertex   -1.651000e+001 1.878330e+001 0.000000e+000
      vertex   1.649943e+001 1.905234e+001 0.000000e+000
    endloop
  endfacet
  facet normal 0.000000e+000 0.000000e+000 -1.000000e+000
    outer loop
      vertex   1.649943e+001 1.905234e+001 0.000000e+000
      vertex   -1.649943e+001 1.905234e+001 0.000000e+000
      vertex   1.646778e+001 1.931971e+001 0.000000e+000
    endloop
  endfacet
  facet normal 0.000000e+000 -0.000000e+000 -1.000000e+000
    outer loop
      vertex   -1.641526e+001 1.958378e+001 0.000000e+000
      vertex   -1.634217e+001 1.984292e+001 0.000000e+000
      vertex   -1.646778e+001 1.931971e+001 0.000000e+000
    endloop
  endfacet
  facet normal 0.000000e+000 0.000000e+000 -1.000000e+000
    outer loop
      vertex   -1.646778e+001 1.931971e+001 0.000000e+000
      vertex   -1.634217e+001 1.984292e+001 0.000000e+000
      vertex   -1.624898e+001 2.009552e+001 0.000000e+000
    endloop
  endfacet
  facet normal -0.000000e+000 0.000000e+000 -1.000000e+000
    outer loop
      vertex   -1.613626e+001 2.034003e+001 0.000000e+000
      vertex   -1.646778e+001 1.931971e+001 0.000000e+000
      vertex   -1.624898e+001 2.009552e+001 0.000000e+000
    endloop
  endfacet
  facet normal 0.000000e+000 -0.000000e+000 -1.000000e+000
    outer loop
      vertex   -1.613626e+001 2.034003e+001 0.000000e+000
      vertex   -1.600470e+001 2.057495e+001 0.000000e+000
      vertex   -1.646778e+001 1.931971e+001 0.000000e+000
    endloop
  endfacet
  facet normal 0.000000e+000 0.000000e+000 -1.000000e+000
    outer loop
      vertex   -1.646778e+001 1.931971e+001 0.000000e+000
      vertex   -1.600470e+001 2.057495e+001 0.000000e+000
      vertex   -1.585512e+001 2.079882e+001 0.000000e+000
    endloop
  endfacet
  facet normal -0.000000e+000 0.000000e+000 -1.000000e+000
    outer loop
      vertex   -1.568843e+001 2.101026e+001 0.000000e+000
      vertex   -1.646778e+001 1.931971e+001 0.000000e+000
      vertex   -1.585512e+001 2.079882e+001 0.000000e+000
    endloop
  endfacet
  facet normal 0.000000e+000 -0.000000e+000 -1.000000e+000
    outer loop
      vertex   -1.568843e+001 2.101026e+001 0.000000e+000
      vertex   -1.550567e+001 2.120797e+001 0.000000e+000
      vertex   -1.646778e+001 1.931971e+001 0.000000e+000
    endloop
  endfacet
  facet normal 0.000000e+000 0.000000e+000 -1.000000e+000
    outer loop
      vertex   -1.646778e+001 1.931971e+001 0.000000e+000
      vertex   -1.550567e+001 2.120797e+001 0.000000e+000
      vertex   -1.530796e+001 2.139073e+001 0.000000e+000
    endloop
  endfacet
  facet normal -0.000000e+000 0.000000e+000 -1.000000e+000
    outer loop
      vertex   -1.509652e+001 2.155742e+001 0.000000e+000
      vertex   -1.646778e+001 1.931971e+001 0.000000e+000
      vertex   -1.530796e+001 2.139073e+001 0.000000e+000
    endloop
  endfacet
  facet normal 0.000000e+000 -0.000000e+000 -1.000000e+000
    outer loop
      vertex   -1.509652e+001 2.155742e+001 0.000000e+000
      vertex   -1.487265e+001 2.170700e+001 0.000000e+000
      vertex   -1.646778e+001 1.931971e+001 0.000000e+000
    endloop
  endfacet
  facet normal 0.000000e+000 0.000000e+000 -1.000000e+000
    outer loop
      vertex   -1.646778e+001 1.931971e+001 0.000000e+000
      vertex   -1.487265e+001 2.170700e+001 0.000000e+000
      vertex   -1.463773e+001 2.183856e+001 0.000000e+000
    endloop
  endfacet
  facet normal -0.000000e+000 0.000000e+000 -1.000000e+000
    outer loop
      vertex   -1.439322e+001 2.195128e+001 0.000000e+000
      vertex   -1.646778e+001 1.931971e+001 0.000000e+000
      vertex   -1.463773e+001 2.183856e+001 0.000000e+000
    endloop
  endfacet
  facet normal 0.000000e+000 -0.000000e+000 -1.000000e+000
    outer loop
      vertex   -1.439322e+001 2.195128e+001 0.000000e+000
      vertex   -1.414062e+001 2.204447e+001 0.000000e+000
      vertex   -1.646778e+001 1.931971e+001 0.000000e+000
    endloop
  endfacet
  facet normal 0.000000e+000 0.000000e+000 -1.000000e+000
    outer loop
      vertex   -1.646778e+001 1.931971e+001 0.000000e+000
      vertex   -1.414062e+001 2.204447e+001 0.000000e+000
      vertex   -1.388148e+001 2.211756e+001 0.000000e+000
    endloop
  endfacet
  facet normal -0.000000e+000 0.000000e+000 -1.000000e+000
    outer loop
      vertex   -1.361741e+001 2.217008e+001 0.000000e+000
      vertex   -1.646778e+001 1.931971e+001 0.000000e+000
      vertex   -1.388148e+001 2.211756e+001 0.000000e+000
    endloop
  endfacet
  facet normal 0.000000e+000 -0.000000e+000 -1.000000e+000
    outer loop
      vertex   -1.361741e+001 2.217008e+001 0.000000e+000
      vertex   -1.335004e+001 2.220173e+001 0.000000e+000
      vertex   -1.646778e+001 1.931971e+001 0.000000e+000
    endloop
  endfacet
  facet normal 0.000000e+000 0.000000e+000 -1.000000e+000
    outer loop
      vertex   -1.646778e+001 1.931971e+001 0.000000e+000
      vertex   -1.335004e+001 2.220173e+001 0.000000e+000
      vertex   -1.308100e+001 2.221230e+001 0.000000e+000
    endloop
  endfacet
  facet normal -0.000000e+000 -1.000000e+000 -0.000000e+000
    outer loop
      vertex   1.308100e+001 -2.221230e+001 2.540000e+000
      vertex   -1.308100e+001 -2.221230e+001 2.540000e+000
      vertex   1.308100e+001 -2.221230e+001 0.000000e+000
    endloop
  endfacet
  facet normal -0.000000e+000 -1.000000e+000 -0.000000e+000
    outer loop
      vertex   1.308100e+001 -2.221230e+001 0.000000e+000
      vertex   -1.308100e+001 -2.221230e+001 2.540000e+000
      vertex   -1.308100e+001 -2.221230e+001 0.000000e+000
    endloop
  endfacet
  facet normal -3.925982e-002 -9.992290e-001 0.000000e+000
    outer loop
      vertex   -1.308100e+001 -2.221230e+001 2.540000e+000
      vertex   -1.335004e+001 -2.220173e+001 2.540000e+000
      vertex   -1.308100e+001 -2.221230e+001 0.000000e+000
    endloop
  endfacet
  facet normal -3.925982e-002 -9.992290e-001 -1.397628e-015
    outer loop
      vertex   -1.308100e+001 -2.221230e+001 0.000000e+000
      vertex   -1.335004e+001 -2.220173e+001 2.540000e+000
      vertex   -1.335004e+001 -2.220173e+001 0.000000e+000
    endloop
  endfacet
  facet normal -1.175374e-001 -9.930685e-001 -1.389011e-015
    outer loop
      vertex   -1.335004e+001 -2.220173e+001 0.000000e+000
      vertex   -1.335004e+001 -2.220173e+001 2.540000e+000
      vertex   -1.361741e+001 -2.217008e+001 2.540000e+000
    endloop
  endfacet
  facet normal -1.950903e-001 -9.807853e-001 1.364370e-016
    outer loop
      vertex   -1.361741e+001 -2.217008e+001 0.000000e+000
      vertex   -1.361741e+001 -2.217008e+001 2.540000e+000
      vertex   -1.388148e+001 -2.211756e+001 2.540000e+000
    endloop
  endfacet
  facet normal -2.714404e-001 -9.624552e-001 1.898327e-016
    outer loop
      vertex   -1.388148e+001 -2.211756e+001 0.000000e+000
      vertex   -1.388148e+001 -2.211756e+001 2.540000e+000
      vertex   -1.414062e+001 -2.204447e+001 2.540000e+000
    endloop
  endfacet
  facet normal -3.461171e-001 -9.381913e-001 0.000000e+000
    outer loop
      vertex   -1.414062e+001 -2.204447e+001 0.000000e+000
      vertex   -1.414062e+001 -2.204447e+001 2.540000e+000
      vertex   -1.439322e+001 -2.195128e+001 2.540000e+000
    endloop
  endfacet
  facet normal -4.186597e-001 -9.081432e-001 0.000000e+000
    outer loop
      vertex   -1.439322e+001 -2.195128e+001 0.000000e+000
      vertex   -1.439322e+001 -2.195128e+001 2.540000e+000
      vertex   -1.463773e+001 -2.183856e+001 2.540000e+000
    endloop
  endfacet
  facet normal -4.886212e-001 -8.724960e-001 0.000000e+000
    outer loop
      vertex   -1.463773e+001 -2.183856e+001 0.000000e+000
      vertex   -1.463773e+001 -2.183856e+001 2.540000e+000
      vertex   -1.487265e+001 -2.170700e+001 2.540000e+000
    endloop
  endfacet
  facet normal -5.555702e-001 -8.314696e-001 0.000000e+000
    outer loop
      vertex   -1.487265e+001 -2.170700e+001 0.000000e+000
      vertex   -1.487265e+001 -2.170700e+001 2.540000e+000
      vertex   -1.509652e+001 -2.155742e+001 2.540000e+000
    endloop
  endfacet
  facet normal -6.190939e-001 -7.853169e-001 0.000000e+000
    outer loop
      vertex   -1.509652e+001 -2.155742e+001 0.000000e+000
      vertex   -1.509652e+001 -2.155742e+001 2.540000e+000
      vertex   -1.530796e+001 -2.139073e+001 2.540000e+000
    endloop
  endfacet
  facet normal -6.788007e-001 -7.343225e-001 0.000000e+000
    outer loop
      vertex   -1.530796e+001 -2.139073e+001 0.000000e+000
      vertex   -1.530796e+001 -2.139073e+001 2.540000e+000
      vertex   -1.550567e+001 -2.120797e+001 0.000000e+000
    endloop
  endfacet
  facet normal -6.190939e-001 -7.853169e-001 0.000000e+000
    outer loop
      vertex   -1.530796e+001 -2.139073e+001 0.000000e+000
      vertex   -1.509652e+001 -2.155742e+001 0.000000e+000
      vertex   -1.530796e+001 -2.139073e+001 2.540000e+000
    endloop
  endfacet
  facet normal -1.175374e-001 -9.930685e-001 8.220014e-017
    outer loop
      vertex   -1.335004e+001 -2.220173e+001 0.000000e+000
      vertex   -1.361741e+001 -2.217008e+001 2.540000e+000
      vertex   -1.361741e+001 -2.217008e+001 0.000000e+000
    endloop
  endfacet
  facet normal -1.950903e-001 -9.807853e-001 1.364370e-016
    outer loop
      vertex   -1.361741e+001 -2.217008e+001 0.000000e+000
      vertex   -1.388148e+001 -2.211756e+001 2.540000e+000
      vertex   -1.388148e+001 -2.211756e+001 0.000000e+000
    endloop
  endfacet
  facet normal -2.714404e-001 -9.624552e-001 -0.000000e+000
    outer loop
      vertex   -1.388148e+001 -2.211756e+001 0.000000e+000
      vertex   -1.414062e+001 -2.204447e+001 2.540000e+000
      vertex   -1.414062e+001 -2.204447e+001 0.000000e+000
    endloop
  endfacet
  facet normal -3.461171e-001 -9.381913e-001 -0.000000e+000
    outer loop
      vertex   -1.414062e+001 -2.204447e+001 0.000000e+000
      vertex   -1.439322e+001 -2.195128e+001 2.540000e+000
      vertex   -1.439322e+001 -2.195128e+001 0.000000e+000
    endloop
  endfacet
  facet normal -4.186597e-001 -9.081432e-001 -0.000000e+000
    outer loop
      vertex   -1.439322e+001 -2.195128e+001 0.000000e+000
      vertex   -1.463773e+001 -2.183856e+001 2.540000e+000
      vertex   -1.463773e+001 -2.183856e+001 0.000000e+000
    endloop
  endfacet
  facet normal -4.886212e-001 -8.724960e-001 -0.000000e+000
    outer loop
      vertex   -1.463773e+001 -2.183856e+001 0.000000e+000
      vertex   -1.487265e+001 -2.170700e+001 2.540000e+000
      vertex   -1.487265e+001 -2.170700e+001 0.000000e+000
    endloop
  endfacet
  facet normal -5.555702e-001 -8.314696e-001 -0.000000e+000
    outer loop
      vertex   -1.487265e+001 -2.170700e+001 0.000000e+000
      vertex   -1.509652e+001 -2.155742e+001 2.540000e+000
      vertex   -1.509652e+001 -2.155742e+001 0.000000e+000
    endloop
  endfacet
  facet normal -6.788007e-001 -7.343225e-001 4.747214e-016
    outer loop
      vertex   -1.530796e+001 -2.139073e+001 2.540000e+000
      vertex   -1.550567e+001 -2.120797e+001 2.540000e+000
      vertex   -1.550567e+001 -2.120797e+001 0.000000e+000
    endloop
  endfacet
  facet normal -7.343225e-001 -6.788007e-001 5.135507e-016
    outer loop
      vertex   -1.550567e+001 -2.120797e+001 0.000000e+000
      vertex   -1.550567e+001 -2.120797e+001 2.540000e+000
      vertex   -1.568843e+001 -2.101026e+001 0.000000e+000
    endloop
  endfacet
  facet normal -7.343225e-001 -6.788007e-001 0.000000e+000
    outer loop
      vertex   -1.568843e+001 -2.101026e+001 0.000000e+000
      vertex   -1.550567e+001 -2.120797e+001 2.540000e+000
      vertex   -1.568843e+001 -2.101026e+001 2.540000e+000
    endloop
  endfacet
  facet normal -7.853169e-001 -6.190939e-001 0.000000e+000
    outer loop
      vertex   -1.585512e+001 -2.079882e+001 2.540000e+000
      vertex   -1.568843e+001 -2.101026e+001 0.000000e+000
      vertex   -1.568843e+001 -2.101026e+001 2.540000e+000
    endloop
  endfacet
  facet normal -7.853169e-001 -6.190939e-001 -0.000000e+000
    outer loop
      vertex   -1.585512e+001 -2.079882e+001 2.540000e+000
      vertex   -1.585512e+001 -2.079882e+001 0.000000e+000
      vertex   -1.568843e+001 -2.101026e+001 0.000000e+000
    endloop
  endfacet
  facet normal -8.314696e-001 -5.555702e-001 0.000000e+000
    outer loop
      vertex   -1.585512e+001 -2.079882e+001 2.540000e+000
      vertex   -1.600470e+001 -2.057495e+001 2.540000e+000
      vertex   -1.585512e+001 -2.079882e+001 0.000000e+000
    endloop
  endfacet
  facet normal -8.314696e-001 -5.555702e-001 -0.000000e+000
    outer loop
      vertex   -1.585512e+001 -2.079882e+001 0.000000e+000
      vertex   -1.600470e+001 -2.057495e+001 2.540000e+000
      vertex   -1.600470e+001 -2.057495e+001 0.000000e+000
    endloop
  endfacet
  facet normal -8.724960e-001 -4.886212e-001 0.000000e+000
    outer loop
      vertex   -1.600470e+001 -2.057495e+001 0.000000e+000
      vertex   -1.600470e+001 -2.057495e+001 2.540000e+000
      vertex   -1.613626e+001 -2.034003e+001 2.540000e+000
    endloop
  endfacet
  facet normal -9.081432e-001 -4.186597e-001 0.000000e+000
    outer loop
      vertex   -1.613626e+001 -2.034003e+001 0.000000e+000
      vertex   -1.613626e+001 -2.034003e+001 2.540000e+000
      vertex   -1.624898e+001 -2.009552e+001 2.540000e+000
    endloop
  endfacet
  facet normal -9.381913e-001 -3.461171e-001 0.000000e+000
    outer loop
      vertex   -1.624898e+001 -2.009552e+001 0.000000e+000
      vertex   -1.624898e+001 -2.009552e+001 2.540000e+000
      vertex   -1.634217e+001 -1.984292e+001 2.540000e+000
    endloop
  endfacet
  facet normal -9.624552e-001 -2.714404e-001 0.000000e+000
    outer loop
      vertex   -1.634217e+001 -1.984292e+001 0.000000e+000
      vertex   -1.634217e+001 -1.984292e+001 2.540000e+000
      vertex   -1.641526e+001 -1.958378e+001 2.540000e+000
    endloop
  endfacet
  facet normal -9.807853e-001 -1.950903e-001 0.000000e+000
    outer loop
      vertex   -1.641526e+001 -1.958378e+001 0.000000e+000
      vertex   -1.641526e+001 -1.958378e+001 2.540000e+000
      vertex   -1.646778e+001 -1.931971e+001 2.540000e+000
    endloop
  endfacet
  facet normal -9.930685e-001 -1.175374e-001 -1.644003e-016
    outer loop
      vertex   -1.646778e+001 -1.931971e+001 0.000000e+000
      vertex   -1.646778e+001 -1.931971e+001 2.540000e+000
      vertex   -1.649943e+001 -1.905234e+001 2.540000e+000
    endloop
  endfacet
  facet normal -9.992290e-001 -3.925982e-002 0.000000e+000
    outer loop
      vertex   -1.649943e+001 -1.905234e+001 0.000000e+000
      vertex   -1.649943e+001 -1.905234e+001 2.540000e+000
      vertex   -1.651000e+001 -1.878330e+001 2.540000e+000
    endloop
  endfacet
  facet normal -9.992290e-001 -3.925982e-002 0.000000e+000
    outer loop
      vertex   -1.651000e+001 -1.878330e+001 0.000000e+000
      vertex   -1.649943e+001 -1.905234e+001 0.000000e+000
      vertex   -1.651000e+001 -1.878330e+001 2.540000e+000
    endloop
  endfacet
  facet normal -8.724960e-001 -4.886212e-001 -0.000000e+000
    outer loop
      vertex   -1.600470e+001 -2.057495e+001 0.000000e+000
      vertex   -1.613626e+001 -2.034003e+001 2.540000e+000
      vertex   -1.613626e+001 -2.034003e+001 0.000000e+000
    endloop
  endfacet
  facet normal -9.081432e-001 -4.186597e-001 -0.000000e+000
    outer loop
      vertex   -1.613626e+001 -2.034003e+001 0.000000e+000
      vertex   -1.624898e+001 -2.009552e+001 2.540000e+000
      vertex   -1.624898e+001 -2.009552e+001 0.000000e+000
    endloop
  endfacet
  facet normal -9.381913e-001 -3.461171e-001 -0.000000e+000
    outer loop
      vertex   -1.624898e+001 -2.009552e+001 0.000000e+000
      vertex   -1.634217e+001 -1.984292e+001 2.540000e+000
      vertex   -1.634217e+001 -1.984292e+001 0.000000e+000
    endloop
  endfacet
  facet normal -9.624552e-001 -2.714404e-001 -0.000000e+000
    outer loop
      vertex   -1.634217e+001 -1.984292e+001 0.000000e+000
      vertex   -1.641526e+001 -1.958378e+001 2.540000e+000
      vertex   -1.641526e+001 -1.958378e+001 0.000000e+000
    endloop
  endfacet
  facet normal -9.807853e-001 -1.950903e-001 -2.728740e-016
    outer loop
      vertex   -1.641526e+001 -1.958378e+001 0.000000e+000
      vertex   -1.646778e+001 -1.931971e+001 2.540000e+000
      vertex   -1.646778e+001 -1.931971e+001 0.000000e+000
    endloop
  endfacet
  facet normal -9.930685e-001 -1.175374e-001 -0.000000e+000
    outer loop
      vertex   -1.646778e+001 -1.931971e+001 0.000000e+000
      vertex   -1.649943e+001 -1.905234e+001 2.540000e+000
      vertex   -1.649943e+001 -1.905234e+001 0.000000e+000
    endloop
  endfacet
  facet normal 3.925982e-002 9.992290e-001 0.000000e+000
    outer loop
      vertex   1.308100e+001 2.221230e+001 2.540000e+000
      vertex   1.335004e+001 2.220173e+001 2.540000e+000
      vertex   1.308100e+001 2.221230e+001 0.000000e+000
    endloop
  endfacet
  facet normal 3.925982e-002 9.992290e-001 -1.397628e-015
    outer loop
      vertex   1.308100e+001 2.221230e+001 0.000000e+000
      vertex   1.335004e+001 2.220173e+001 2.540000e+000
      vertex   1.335004e+001 2.220173e+001 0.000000e+000
    endloop
  endfacet
  facet normal 1.175374e-001 9.930685e-001 -1.389011e-015
    outer loop
      vertex   1.335004e+001 2.220173e+001 0.000000e+000
      vertex   1.335004e+001 2.220173e+001 2.540000e+000
      vertex   1.361741e+001 2.217008e+001 2.540000e+000
    endloop
  endfacet
  facet normal 1.950903e-001 9.807853e-001 1.364370e-016
    outer loop
      vertex   1.361741e+001 2.217008e+001 0.000000e+000
      vertex   1.361741e+001 2.217008e+001 2.540000e+000
      vertex   1.388148e+001 2.211756e+001 2.540000e+000
    endloop
  endfacet
  facet normal 2.714404e-001 9.624552e-001 1.898327e-016
    outer loop
      vertex   1.388148e+001 2.211756e+001 0.000000e+000
      vertex   1.388148e+001 2.211756e+001 2.540000e+000
      vertex   1.414062e+001 2.204447e+001 2.540000e+000
    endloop
  endfacet
  facet normal 3.461171e-001 9.381913e-001 -0.000000e+000
    outer loop
      vertex   1.414062e+001 2.204447e+001 0.000000e+000
      vertex   1.414062e+001 2.204447e+001 2.540000e+000
      vertex   1.439322e+001 2.195128e+001 2.540000e+000
    endloop
  endfacet
  facet normal 4.186597e-001 9.081432e-001 -0.000000e+000
    outer loop
      vertex   1.439322e+001 2.195128e+001 0.000000e+000
      vertex   1.439322e+001 2.195128e+001 2.540000e+000
      vertex   1.463773e+001 2.183856e+001 2.540000e+000
    endloop
  endfacet
  facet normal 4.886212e-001 8.724960e-001 -0.000000e+000
    outer loop
      vertex   1.463773e+001 2.183856e+001 0.000000e+000
      vertex   1.463773e+001 2.183856e+001 2.540000e+000
      vertex   1.487265e+001 2.170700e+001 2.540000e+000
    endloop
  endfacet
  facet normal 5.555702e-001 8.314696e-001 -0.000000e+000
    outer loop
      vertex   1.487265e+001 2.170700e+001 0.000000e+000
      vertex   1.487265e+001 2.170700e+001 2.540000e+000
      vertex   1.509652e+001 2.155742e+001 2.540000e+000
    endloop
  endfacet
  facet normal 6.190939e-001 7.853169e-001 -0.000000e+000
    outer loop
      vertex   1.509652e+001 2.155742e+001 0.000000e+000
      vertex   1.509652e+001 2.155742e+001 2.540000e+000
      vertex   1.530796e+001 2.139073e+001 2.540000e+000
    endloop
  endfacet
  facet normal 6.788007e-001 7.343225e-001 -0.000000e+000
    outer loop
      vertex   1.530796e+001 2.139073e+001 0.000000e+000
      vertex   1.530796e+001 2.139073e+001 2.540000e+000
      vertex   1.550567e+001 2.120797e+001 0.000000e+000
    endloop
  endfacet
  facet normal 6.190939e-001 7.853169e-001 0.000000e+000
    outer loop
      vertex   1.530796e+001 2.139073e+001 0.000000e+000
      vertex   1.509652e+001 2.155742e+001 0.000000e+000
      vertex   1.530796e+001 2.139073e+001 2.540000e+000
    endloop
  endfacet
  facet normal 1.175374e-001 9.930685e-001 8.220014e-017
    outer loop
      vertex   1.335004e+001 2.220173e+001 0.000000e+000
      vertex   1.361741e+001 2.217008e+001 2.540000e+000
      vertex   1.361741e+001 2.217008e+001 0.000000e+000
    endloop
  endfacet
  facet normal 1.950903e-001 9.807853e-001 1.364370e-016
    outer loop
      vertex   1.361741e+001 2.217008e+001 0.000000e+000
      vertex   1.388148e+001 2.211756e+001 2.540000e+000
      vertex   1.388148e+001 2.211756e+001 0.000000e+000
    endloop
  endfacet
  facet normal 2.714404e-001 9.624552e-001 0.000000e+000
    outer loop
      vertex   1.388148e+001 2.211756e+001 0.000000e+000
      vertex   1.414062e+001 2.204447e+001 2.540000e+000
      vertex   1.414062e+001 2.204447e+001 0.000000e+000
    endloop
  endfacet
  facet normal 3.461171e-001 9.381913e-001 0.000000e+000
    outer loop
      vertex   1.414062e+001 2.204447e+001 0.000000e+000
      vertex   1.439322e+001 2.195128e+001 2.540000e+000
      vertex   1.439322e+001 2.195128e+001 0.000000e+000
    endloop
  endfacet
  facet normal 4.186597e-001 9.081432e-001 0.000000e+000
    outer loop
      vertex   1.439322e+001 2.195128e+001 0.000000e+000
      vertex   1.463773e+001 2.183856e+001 2.540000e+000
      vertex   1.463773e+001 2.183856e+001 0.000000e+000
    endloop
  endfacet
  facet normal 4.886212e-001 8.724960e-001 0.000000e+000
    outer loop
      vertex   1.463773e+001 2.183856e+001 0.000000e+000
      vertex   1.487265e+001 2.170700e+001 2.540000e+000
      vertex   1.487265e+001 2.170700e+001 0.000000e+000
    endloop
  endfacet
  facet normal 5.555702e-001 8.314696e-001 0.000000e+000
    outer loop
      vertex   1.487265e+001 2.170700e+001 0.000000e+000
      vertex   1.509652e+001 2.155742e+001 2.540000e+000
      vertex   1.509652e+001 2.155742e+001 0.000000e+000
    endloop
  endfacet
  facet normal 6.788007e-001 7.343225e-001 4.747214e-016
    outer loop
      vertex   1.530796e+001 2.139073e+001 2.540000e+000
      vertex   1.550567e+001 2.120797e+001 2.540000e+000
      vertex   1.550567e+001 2.120797e+001 0.000000e+000
    endloop
  endfacet
  facet normal 7.343225e-001 6.788007e-001 5.135507e-016
    outer loop
      vertex   1.550567e+001 2.120797e+001 0.000000e+000
      vertex   1.550567e+001 2.120797e+001 2.540000e+000
      vertex   1.568843e+001 2.101026e+001 0.000000e+000
    endloop
  endfacet
  facet normal 7.343225e-001 6.788007e-001 0.000000e+000
    outer loop
      vertex   1.568843e+001 2.101026e+001 0.000000e+000
      vertex   1.550567e+001 2.120797e+001 2.540000e+000
      vertex   1.568843e+001 2.101026e+001 2.540000e+000
    endloop
  endfacet
  facet normal 7.853169e-001 6.190939e-001 -0.000000e+000
    outer loop
      vertex   1.585512e+001 2.079882e+001 2.540000e+000
      vertex   1.568843e+001 2.101026e+001 0.000000e+000
      vertex   1.568843e+001 2.101026e+001 2.540000e+000
    endloop
  endfacet
  facet normal 7.853169e-001 6.190939e-001 0.000000e+000
    outer loop
      vertex   1.585512e+001 2.079882e+001 2.540000e+000
      vertex   1.585512e+001 2.079882e+001 0.000000e+000
      vertex   1.568843e+001 2.101026e+001 0.000000e+000
    endloop
  endfacet
  facet normal 8.314696e-001 5.555702e-001 0.000000e+000
    outer loop
      vertex   1.585512e+001 2.079882e+001 2.540000e+000
      vertex   1.600470e+001 2.057495e+001 2.540000e+000
      vertex   1.585512e+001 2.079882e+001 0.000000e+000
    endloop
  endfacet
  facet normal 8.314696e-001 5.555702e-001 0.000000e+000
    outer loop
      vertex   1.585512e+001 2.079882e+001 0.000000e+000
      vertex   1.600470e+001 2.057495e+001 2.540000e+000
      vertex   1.600470e+001 2.057495e+001 0.000000e+000
    endloop
  endfacet
  facet normal 8.724960e-001 4.886212e-001 -0.000000e+000
    outer loop
      vertex   1.600470e+001 2.057495e+001 0.000000e+000
      vertex   1.600470e+001 2.057495e+001 2.540000e+000
      vertex   1.613626e+001 2.034003e+001 2.540000e+000
    endloop
  endfacet
  facet normal 9.081432e-001 4.186597e-001 -0.000000e+000
    outer loop
      vertex   1.613626e+001 2.034003e+001 0.000000e+000
      vertex   1.613626e+001 2.034003e+001 2.540000e+000
      vertex   1.624898e+001 2.009552e+001 2.540000e+000
    endloop
  endfacet
  facet normal 9.381913e-001 3.461171e-001 -0.000000e+000
    outer loop
      vertex   1.624898e+001 2.009552e+001 0.000000e+000
      vertex   1.624898e+001 2.009552e+001 2.540000e+000
      vertex   1.634217e+001 1.984292e+001 2.540000e+000
    endloop
  endfacet
  facet normal 9.624552e-001 2.714404e-001 -0.000000e+000
    outer loop
      vertex   1.634217e+001 1.984292e+001 0.000000e+000
      vertex   1.634217e+001 1.984292e+001 2.540000e+000
      vertex   1.641526e+001 1.958378e+001 2.540000e+000
    endloop
  endfacet
  facet normal 9.807853e-001 1.950903e-001 -0.000000e+000
    outer loop
      vertex   1.641526e+001 1.958378e+001 0.000000e+000
      vertex   1.641526e+001 1.958378e+001 2.540000e+000
      vertex   1.646778e+001 1.931971e+001 2.540000e+000
    endloop
  endfacet
  facet normal 9.930685e-001 1.175374e-001 -1.644003e-016
    outer loop
      vertex   1.646778e+001 1.931971e+001 0.000000e+000
      vertex   1.646778e+001 1.931971e+001 2.540000e+000
      vertex   1.649943e+001 1.905234e+001 2.540000e+000
    endloop
  endfacet
  facet normal 9.992290e-001 3.925982e-002 -0.000000e+000
    outer loop
      vertex   1.649943e+001 1.905234e+001 0.000000e+000
      vertex   1.649943e+001 1.905234e+001 2.540000e+000
      vertex   1.651000e+001 1.878330e+001 2.540000e+000
    endloop
  endfacet
  facet normal 9.992290e-001 3.925982e-002 0.000000e+000
    outer loop
      vertex   1.651000e+001 1.878330e+001 0.000000e+000
      vertex   1.649943e+001 1.905234e+001 0.000000e+000
      vertex   1.651000e+001 1.878330e+001 2.540000e+000
    endloop
  endfacet
  facet normal 8.724960e-001 4.886212e-001 0.000000e+000
    outer loop
      vertex   1.600470e+001 2.057495e+001 0.000000e+000
      vertex   1.613626e+001 2.034003e+001 2.540000e+000
      vertex   1.613626e+001 2.034003e+001 0.000000e+000
    endloop
  endfacet
  facet normal 9.081432e-001 4.186597e-001 0.000000e+000
    outer loop
      vertex   1.613626e+001 2.034003e+001 0.000000e+000
      vertex   1.624898e+001 2.009552e+001 2.540000e+000
      vertex   1.624898e+001 2.009552e+001 0.000000e+000
    endloop
  endfacet
  facet normal 9.381913e-001 3.461171e-001 0.000000e+000
    outer loop
      vertex   1.624898e+001 2.009552e+001 0.000000e+000
      vertex   1.634217e+001 1.984292e+001 2.540000e+000
      vertex   1.634217e+001 1.984292e+001 0.000000e+000
    endloop
  endfacet
  facet normal 9.624552e-001 2.714404e-001 0.000000e+000
    outer loop
      vertex   1.634217e+001 1.984292e+001 0.000000e+000
      vertex   1.641526e+001 1.958378e+001 2.540000e+000
      vertex   1.641526e+001 1.958378e+001 0.000000e+000
    endloop
  endfacet
  facet normal 9.807853e-001 1.950903e-001 -2.728740e-016
    outer loop
      vertex   1.641526e+001 1.958378e+001 0.000000e+000
      vertex   1.646778e+001 1.931971e+001 2.540000e+000
      vertex   1.646778e+001 1.931971e+001 0.000000e+000
    endloop
  endfacet
  facet normal 9.930685e-001 1.175374e-001 0.000000e+000
    outer loop
      vertex   1.646778e+001 1.931971e+001 0.000000e+000
      vertex   1.649943e+001 1.905234e+001 2.540000e+000
      vertex   1.649943e+001 1.905234e+001 0.000000e+000
    endloop
  endfacet
  facet normal 0.000000e+000 1.000000e+000 -0.000000e+000
    outer loop
      vertex   1.308100e+001 2.221230e+001 0.000000e+000
      vertex   -1.308100e+001 2.221230e+001 0.000000e+000
      vertex   1.308100e+001 2.221230e+001 2.540000e+000
    endloop
  endfacet
  facet normal 0.000000e+000 1.000000e+000 -0.000000e+000
    outer loop
      vertex   1.308100e+001 2.221230e+001 2.540000e+000
      vertex   -1.308100e+001 2.221230e+001 0.000000e+000
      vertex   -1.308100e+001 2.221230e+001 2.540000e+000
    endloop
  endfacet
  facet normal -9.992290e-001 3.925982e-002 0.000000e+000
    outer loop
      vertex   -1.651000e+001 1.878330e+001 2.540000e+000
      vertex   -1.649943e+001 1.905234e+001 2.540000e+000
      vertex   -1.651000e+001 1.878330e+001 0.000000e+000
    endloop
  endfacet
  facet normal -9.992290e-001 3.925982e-002 0.000000e+000
    outer loop
      vertex   -1.651000e+001 1.878330e+001 0.000000e+000
      vertex   -1.649943e+001 1.905234e+001 2.540000e+000
      vertex   -1.649943e+001 1.905234e+001 0.000000e+000
    endloop
  endfacet
  facet normal -9.930685e-001 1.175374e-001 0.000000e+000
    outer loop
      vertex   -1.649943e+001 1.905234e+001 0.000000e+000
      vertex   -1.649943e+001 1.905234e+001 2.540000e+000
      vertex   -1.646778e+001 1.931971e+001 2.540000e+000
    endloop
  endfacet
  facet normal -9.807853e-001 1.950903e-001 0.000000e+000
    outer loop
      vertex   -1.646778e+001 1.931971e+001 0.000000e+000
      vertex   -1.646778e+001 1.931971e+001 2.540000e+000
      vertex   -1.641526e+001 1.958378e+001 2.540000e+000
    endloop
  endfacet
  facet normal -9.624552e-001 2.714404e-001 0.000000e+000
    outer loop
      vertex   -1.641526e+001 1.958378e+001 0.000000e+000
      vertex   -1.641526e+001 1.958378e+001 2.540000e+000
      vertex   -1.634217e+001 1.984292e+001 2.540000e+000
    endloop
  endfacet
  facet normal -9.381913e-001 3.461171e-001 0.000000e+000
    outer loop
      vertex   -1.634217e+001 1.984292e+001 0.000000e+000
      vertex   -1.634217e+001 1.984292e+001 2.540000e+000
      vertex   -1.624898e+001 2.009552e+001 2.540000e+000
    endloop
  endfacet
  facet normal -9.081432e-001 4.186597e-001 0.000000e+000
    outer loop
      vertex   -1.624898e+001 2.009552e+001 0.000000e+000
      vertex   -1.624898e+001 2.009552e+001 2.540000e+000
      vertex   -1.613626e+001 2.034003e+001 2.540000e+000
    endloop
  endfacet
  facet normal -8.724960e-001 4.886212e-001 0.000000e+000
    outer loop
      vertex   -1.613626e+001 2.034003e+001 0.000000e+000
      vertex   -1.613626e+001 2.034003e+001 2.540000e+000
      vertex   -1.600470e+001 2.057495e+001 2.540000e+000
    endloop
  endfacet
  facet normal -8.314696e-001 5.555702e-001 0.000000e+000
    outer loop
      vertex   -1.600470e+001 2.057495e+001 0.000000e+000
      vertex   -1.600470e+001 2.057495e+001 2.540000e+000
      vertex   -1.585512e+001 2.079882e+001 2.540000e+000
    endloop
  endfacet
  facet normal -7.853169e-001 6.190939e-001 0.000000e+000
    outer loop
      vertex   -1.585512e+001 2.079882e+001 0.000000e+000
      vertex   -1.585512e+001 2.079882e+001 2.540000e+000
      vertex   -1.568843e+001 2.101026e+001 2.540000e+000
    endloop
  endfacet
  facet normal -7.343225e-001 6.788007e-001 0.000000e+000
    outer loop
      vertex   -1.568843e+001 2.101026e+001 0.000000e+000
      vertex   -1.568843e+001 2.101026e+001 2.540000e+000
      vertex   -1.550567e+001 2.120797e+001 0.000000e+000
    endloop
  endfacet
  facet normal -7.853169e-001 6.190939e-001 0.000000e+000
    outer loop
      vertex   -1.568843e+001 2.101026e+001 0.000000e+000
      vertex   -1.585512e+001 2.079882e+001 0.000000e+000
      vertex   -1.568843e+001 2.101026e+001 2.540000e+000
    endloop
  endfacet
  facet normal -9.930685e-001 1.175374e-001 0.000000e+000
    outer loop
      vertex   -1.649943e+001 1.905234e+001 0.000000e+000
      vertex   -1.646778e+001 1.931971e+001 2.540000e+000
      vertex   -1.646778e+001 1.931971e+001 0.000000e+000
    endloop
  endfacet
  facet normal -9.807853e-001 1.950903e-001 0.000000e+000
    outer loop
      vertex   -1.646778e+001 1.931971e+001 0.000000e+000
      vertex   -1.641526e+001 1.958378e+001 2.540000e+000
      vertex   -1.641526e+001 1.958378e+001 0.000000e+000
    endloop
  endfacet
  facet normal -9.624552e-001 2.714404e-001 0.000000e+000
    outer loop
      vertex   -1.641526e+001 1.958378e+001 0.000000e+000
      vertex   -1.634217e+001 1.984292e+001 2.540000e+000
      vertex   -1.634217e+001 1.984292e+001 0.000000e+000
    endloop
  endfacet
  facet normal -9.381913e-001 3.461171e-001 0.000000e+000
    outer loop
      vertex   -1.634217e+001 1.984292e+001 0.000000e+000
      vertex   -1.624898e+001 2.009552e+001 2.540000e+000
      vertex   -1.624898e+001 2.009552e+001 0.000000e+000
    endloop
  endfacet
  facet normal -9.081432e-001 4.186597e-001 0.000000e+000
    outer loop
      vertex   -1.624898e+001 2.009552e+001 0.000000e+000
      vertex   -1.613626e+001 2.034003e+001 2.540000e+000
      vertex   -1.613626e+001 2.034003e+001 0.000000e+000
    endloop
  endfacet
  facet normal -8.724960e-001 4.886212e-001 0.000000e+000
    outer loop
      vertex   -1.613626e+001 2.034003e+001 0.000000e+000
      vertex   -1.600470e+001 2.057495e+001 2.540000e+000
      vertex   -1.600470e+001 2.057495e+001 0.000000e+000
    endloop
  endfacet
  facet normal -8.314696e-001 5.555702e-001 0.000000e+000
    outer loop
      vertex   -1.600470e+001 2.057495e+001 0.000000e+000
      vertex   -1.585512e+001 2.079882e+001 2.540000e+000
      vertex   -1.585512e+001 2.079882e+001 0.000000e+000
    endloop
  endfacet
  facet normal -7.343225e-001 6.788007e-001 0.000000e+000
    outer loop
      vertex   -1.568843e+001 2.101026e+001 2.540000e+000
      vertex   -1.550567e+001 2.120797e+001 2.540000e+000
      vertex   -1.550567e+001 2.120797e+001 0.000000e+000
    endloop
  endfacet
  facet normal -6.788007e-001 7.343225e-001 0.000000e+000
    outer loop
      vertex   -1.550567e+001 2.120797e+001 0.000000e+000
      vertex   -1.550567e+001 2.120797e+001 2.540000e+000
      vertex   -1.530796e+001 2.139073e+001 0.000000e+000
    endloop
  endfacet
  facet normal -6.788007e-001 7.343225e-001 0.000000e+000
    outer loop
      vertex   -1.530796e+001 2.139073e+001 0.000000e+000
      vertex   -1.550567e+001 2.120797e+001 2.540000e+000
      vertex   -1.530796e+001 2.139073e+001 2.540000e+000
    endloop
  endfacet
  facet normal -6.190939e-001 7.853169e-001 0.000000e+000
    outer loop
      vertex   -1.509652e+001 2.155742e+001 2.540000e+000
      vertex   -1.530796e+001 2.139073e+001 0.000000e+000
      vertex   -1.530796e+001 2.139073e+001 2.540000e+000
    endloop
  endfacet
  facet normal -6.190939e-001 7.853169e-001 0.000000e+000
    outer loop
      vertex   -1.509652e+001 2.155742e+001 2.540000e+000
      vertex   -1.509652e+001 2.155742e+001 0.000000e+000
      vertex   -1.530796e+001 2.139073e+001 0.000000e+000
    endloop
  endfacet
  facet normal -5.555702e-001 8.314696e-001 0.000000e+000
    outer loop
      vertex   -1.509652e+001 2.155742e+001 2.540000e+000
      vertex   -1.487265e+001 2.170700e+001 2.540000e+000
      vertex   -1.509652e+001 2.155742e+001 0.000000e+000
    endloop
  endfacet
  facet normal -5.555702e-001 8.314696e-001 0.000000e+000
    outer loop
      vertex   -1.509652e+001 2.155742e+001 0.000000e+000
      vertex   -1.487265e+001 2.170700e+001 2.540000e+000
      vertex   -1.487265e+001 2.170700e+001 0.000000e+000
    endloop
  endfacet
  facet normal -4.886212e-001 8.724960e-001 0.000000e+000
    outer loop
      vertex   -1.487265e+001 2.170700e+001 0.000000e+000
      vertex   -1.487265e+001 2.170700e+001 2.540000e+000
      vertex   -1.463773e+001 2.183856e+001 2.540000e+000
    endloop
  endfacet
  facet normal -4.186597e-001 9.081432e-001 0.000000e+000
    outer loop
      vertex   -1.463773e+001 2.183856e+001 0.000000e+000
      vertex   -1.463773e+001 2.183856e+001 2.540000e+000
      vertex   -1.439322e+001 2.195128e+001 2.540000e+000
    endloop
  endfacet
  facet normal -3.461171e-001 9.381913e-001 0.000000e+000
    outer loop
      vertex   -1.439322e+001 2.195128e+001 0.000000e+000
      vertex   -1.439322e+001 2.195128e+001 2.540000e+000
      vertex   -1.414062e+001 2.204447e+001 2.540000e+000
    endloop
  endfacet
  facet normal -2.714404e-001 9.624552e-001 0.000000e+000
    outer loop
      vertex   -1.414062e+001 2.204447e+001 0.000000e+000
      vertex   -1.414062e+001 2.204447e+001 2.540000e+000
      vertex   -1.388148e+001 2.211756e+001 2.540000e+000
    endloop
  endfacet
  facet normal -1.950903e-001 9.807853e-001 0.000000e+000
    outer loop
      vertex   -1.388148e+001 2.211756e+001 0.000000e+000
      vertex   -1.388148e+001 2.211756e+001 2.540000e+000
      vertex   -1.361741e+001 2.217008e+001 2.540000e+000
    endloop
  endfacet
  facet normal -1.175374e-001 9.930685e-001 0.000000e+000
    outer loop
      vertex   -1.361741e+001 2.217008e+001 0.000000e+000
      vertex   -1.361741e+001 2.217008e+001 2.540000e+000
      vertex   -1.335004e+001 2.220173e+001 2.540000e+000
    endloop
  endfacet
  facet normal -3.925982e-002 9.992290e-001 0.000000e+000
    outer loop
      vertex   -1.335004e+001 2.220173e+001 0.000000e+000
      vertex   -1.335004e+001 2.220173e+001 2.540000e+000
      vertex   -1.308100e+001 2.221230e+001 2.540000e+000
    endloop
  endfacet
  facet normal -3.925982e-002 9.992290e-001 0.000000e+000
    outer loop
      vertex   -1.308100e+001 2.221230e+001 0.000000e+000
      vertex   -1.335004e+001 2.220173e+001 0.000000e+000
      vertex   -1.308100e+001 2.221230e+001 2.540000e+000
    endloop
  endfacet
  facet normal -4.886212e-001 8.724960e-001 0.000000e+000
    outer loop
      vertex   -1.487265e+001 2.170700e+001 0.000000e+000
      vertex   -1.463773e+001 2.183856e+001 2.540000e+000
      vertex   -1.463773e+001 2.183856e+001 0.000000e+000
    endloop
  endfacet
  facet normal -4.186597e-001 9.081432e-001 0.000000e+000
    outer loop
      vertex   -1.463773e+001 2.183856e+001 0.000000e+000
      vertex   -1.439322e+001 2.195128e+001 2.540000e+000
      vertex   -1.439322e+001 2.195128e+001 0.000000e+000
    endloop
  endfacet
  facet normal -3.461171e-001 9.381913e-001 0.000000e+000
    outer loop
      vertex   -1.439322e+001 2.195128e+001 0.000000e+000
      vertex   -1.414062e+001 2.204447e+001 2.540000e+000
      vertex   -1.414062e+001 2.204447e+001 0.000000e+000
    endloop
  endfacet
  facet normal -2.714404e-001 9.624552e-001 0.000000e+000
    outer loop
      vertex   -1.414062e+001 2.204447e+001 0.000000e+000
      vertex   -1.388148e+001 2.211756e+001 2.540000e+000
      vertex   -1.388148e+001 2.211756e+001 0.000000e+000
    endloop
  endfacet
  facet normal -1.950903e-001 9.807853e-001 0.000000e+000
    outer loop
      vertex   -1.388148e+001 2.211756e+001 0.000000e+000
      vertex   -1.361741e+001 2.217008e+001 2.540000e+000
      vertex   -1.361741e+001 2.217008e+001 0.000000e+000
    endloop
  endfacet
  facet normal -1.175374e-001 9.930685e-001 0.000000e+000
    outer loop
      vertex   -1.361741e+001 2.217008e+001 0.000000e+000
      vertex   -1.335004e+001 2.220173e+001 2.540000e+000
      vertex   -1.335004e+001 2.220173e+001 0.000000e+000
    endloop
  endfacet
  facet normal -1.000000e+000 0.000000e+000 -0.000000e+000
    outer loop
      vertex   -1.651000e+001 -1.878330e+001 2.540000e+000
      vertex   -1.651000e+001 1.878330e+001 2.540000e+000
      vertex   -1.651000e+001 -1.878330e+001 0.000000e+000
    endloop
  endfacet
  facet normal -1.000000e+000 0.000000e+000 0.000000e+000
    outer loop
      vertex   -1.651000e+001 -1.878330e+001 0.000000e+000
      vertex   -1.651000e+001 1.878330e+001 2.540000e+000
      vertex   -1.651000e+001 1.878330e+001 0.000000e+000
    endloop
  endfacet
  facet normal 1.000000e+000 0.000000e+000 -0.000000e+000
    outer loop
      vertex   1.651000e+001 -1.878330e+001 0.000000e+000
      vertex   1.651000e+001 1.878330e+001 0.000000e+000
      vertex   1.651000e+001 -1.878330e+001 2.540000e+000
    endloop
  endfacet
  facet normal 1.000000e+000 -0.000000e+000 0.000000e+000
    outer loop
      vertex   1.651000e+001 -1.878330e+001 2.540000e+000
      vertex   1.651000e+001 1.878330e+001 0.000000e+000
      vertex   1.651000e+001 1.878330e+001 2.540000e+000
    endloop
  endfacet
  facet normal 0.000000e+000 -0.000000e+000 1.000000e+000
    outer loop
      vertex   -1.308100e+001 -2.221230e+001 2.540000e+000
      vertex   1.308100e+001 -2.221230e+001 2.540000e+000
      vertex   -1.335004e+001 -2.220173e+001 2.540000e+000
    endloop
  endfacet
  facet normal -0.000000e+000 0.000000e+000 1.000000e+000
    outer loop
      vertex   -1.335004e+001 -2.220173e+001 2.540000e+000
      vertex   1.308100e+001 -2.221230e+001 2.540000e+000
      vertex   1.335004e+001 -2.220173e+001 2.540000e+000
    endloop
  endfacet
  facet normal -0.000000e+000 0.000000e+000 1.000000e+000
    outer loop
      vertex   -1.361741e+001 -2.217008e+001 2.540000e+000
      vertex   1.335004e+001 -2.220173e+001 2.540000e+000
      vertex   1.361741e+001 -2.217008e+001 2.540000e+000
    endloop
  endfacet
  facet normal -0.000000e+000 0.000000e+000 1.000000e+000
    outer loop
      vertex   -1.388148e+001 -2.211756e+001 2.540000e+000
      vertex   1.361741e+001 -2.217008e+001 2.540000e+000
      vertex   1.388148e+001 -2.211756e+001 2.540000e+000
    endloop
  endfacet
  facet normal -0.000000e+000 0.000000e+000 1.000000e+000
    outer loop
      vertex   -1.414062e+001 -2.204447e+001 2.540000e+000
      vertex   1.388148e+001 -2.211756e+001 2.540000e+000
      vertex   1.414062e+001 -2.204447e+001 2.540000e+000
    endloop
  endfacet
  facet normal -0.000000e+000 0.000000e+000 1.000000e+000
    outer loop
      vertex   -1.439322e+001 -2.195128e+001 2.540000e+000
      vertex   1.414062e+001 -2.204447e+001 2.540000e+000
      vertex   1.439322e+001 -2.195128e+001 2.540000e+000
    endloop
  endfacet
  facet normal -0.000000e+000 0.000000e+000 1.000000e+000
    outer loop
      vertex   -1.463773e+001 -2.183856e+001 2.540000e+000
      vertex   1.439322e+001 -2.195128e+001 2.540000e+000
      vertex   1.463773e+001 -2.183856e+001 2.540000e+000
    endloop
  endfacet
  facet normal -0.000000e+000 0.000000e+000 1.000000e+000
    outer loop
      vertex   -1.487265e+001 -2.170700e+001 2.540000e+000
      vertex   1.463773e+001 -2.183856e+001 2.540000e+000
      vertex   1.487265e+001 -2.170700e+001 2.540000e+000
    endloop
  endfacet
  facet normal -0.000000e+000 0.000000e+000 1.000000e+000
    outer loop
      vertex   -1.509652e+001 -2.155742e+001 2.540000e+000
      vertex   1.487265e+001 -2.170700e+001 2.540000e+000
      vertex   1.509652e+001 -2.155742e+001 2.540000e+000
    endloop
  endfacet
  facet normal -0.000000e+000 0.000000e+000 1.000000e+000
    outer loop
      vertex   -1.530796e+001 -2.139073e+001 2.540000e+000
      vertex   1.509652e+001 -2.155742e+001 2.540000e+000
      vertex   1.530796e+001 -2.139073e+001 2.540000e+000
    endloop
  endfacet
  facet normal -0.000000e+000 0.000000e+000 1.000000e+000
    outer loop
      vertex   -1.550567e+001 -2.120797e+001 2.540000e+000
      vertex   1.530796e+001 -2.139073e+001 2.540000e+000
      vertex   1.550567e+001 -2.120797e+001 2.540000e+000
    endloop
  endfacet
  facet normal -0.000000e+000 0.000000e+000 1.000000e+000
    outer loop
      vertex   -1.568843e+001 -2.101026e+001 2.540000e+000
      vertex   1.550567e+001 -2.120797e+001 2.540000e+000
      vertex   1.568843e+001 -2.101026e+001 2.540000e+000
    endloop
  endfacet
  facet normal -0.000000e+000 0.000000e+000 1.000000e+000
    outer loop
      vertex   -1.585512e+001 -2.079882e+001 2.540000e+000
      vertex   1.568843e+001 -2.101026e+001 2.540000e+000
      vertex   1.585512e+001 -2.079882e+001 2.540000e+000
    endloop
  endfacet
  facet normal -0.000000e+000 0.000000e+000 1.000000e+000
    outer loop
      vertex   -1.600470e+001 -2.057495e+001 2.540000e+000
      vertex   1.585512e+001 -2.079882e+001 2.540000e+000
      vertex   1.600470e+001 -2.057495e+001 2.540000e+000
    endloop
  endfacet
  facet normal -0.000000e+000 0.000000e+000 1.000000e+000
    outer loop
      vertex   -1.613626e+001 -2.034003e+001 2.540000e+000
      vertex   1.600470e+001 -2.057495e+001 2.540000e+000
      vertex   1.613626e+001 -2.034003e+001 2.540000e+000
    endloop
  endfacet
  facet normal -0.000000e+000 0.000000e+000 1.000000e+000
    outer loop
      vertex   -1.624898e+001 -2.009552e+001 2.540000e+000
      vertex   1.613626e+001 -2.034003e+001 2.540000e+000
      vertex   1.624898e+001 -2.009552e+001 2.540000e+000
    endloop
  endfacet
  facet normal -0.000000e+000 0.000000e+000 1.000000e+000
    outer loop
      vertex   -1.634217e+001 -1.984292e+001 2.540000e+000
      vertex   1.624898e+001 -2.009552e+001 2.540000e+000
      vertex   1.634217e+001 -1.984292e+001 2.540000e+000
    endloop
  endfacet
  facet normal -0.000000e+000 0.000000e+000 1.000000e+000
    outer loop
      vertex   -1.641526e+001 -1.958378e+001 2.540000e+000
      vertex   1.634217e+001 -1.984292e+001 2.540000e+000
      vertex   1.641526e+001 -1.958378e+001 2.540000e+000
    endloop
  endfacet
  facet normal -0.000000e+000 0.000000e+000 1.000000e+000
    outer loop
      vertex   -1.646778e+001 -1.931971e+001 2.540000e+000
      vertex   1.641526e+001 -1.958378e+001 2.540000e+000
      vertex   1.646778e+001 -1.931971e+001 2.540000e+000
    endloop
  endfacet
  facet normal -0.000000e+000 0.000000e+000 1.000000e+000
    outer loop
      vertex   -1.649943e+001 -1.905234e+001 2.540000e+000
      vertex   1.646778e+001 -1.931971e+001 2.540000e+000
      vertex   1.649943e+001 -1.905234e+001 2.540000e+000
    endloop
  endfacet
  facet normal -0.000000e+000 0.000000e+000 1.000000e+000
    outer loop
      vertex   -1.651000e+001 -1.878330e+001 2.540000e+000
      vertex   1.649943e+001 -1.905234e+001 2.540000e+000
      vertex   1.651000e+001 -1.878330e+001 2.540000e+000
    endloop
  endfacet
  facet normal -0.000000e+000 0.000000e+000 1.000000e+000
    outer loop
      vertex   -1.651000e+001 1.878330e+001 2.540000e+000
      vertex   1.651000e+001 -1.878330e+001 2.540000e+000
      vertex   1.651000e+001 1.878330e+001 2.540000e+000
    endloop
  endfacet
  facet normal -0.000000e+000 -0.000000e+000 1.000000e+000
    outer loop
      vertex   -1.649943e+001 1.905234e+001 2.540000e+000
      vertex   1.651000e+001 1.878330e+001 2.540000e+000
      vertex   1.649943e+001 1.905234e+001 2.540000e+000
    endloop
  endfacet
  facet normal -0.000000e+000 -0.000000e+000 1.000000e+000
    outer loop
      vertex   -1.646778e+001 1.931971e+001 2.540000e+000
      vertex   1.649943e+001 1.905234e+001 2.540000e+000
      vertex   1.646778e+001 1.931971e+001 2.540000e+000
    endloop
  endfacet
  facet normal -0.000000e+000 -0.000000e+000 1.000000e+000
    outer loop
      vertex   -1.308100e+001 2.221230e+001 2.540000e+000
      vertex   1.646778e+001 1.931971e+001 2.540000e+000
      vertex   1.308100e+001 2.221230e+001 2.540000e+000
    endloop
  endfacet
  facet normal -0.000000e+000 0.000000e+000 1.000000e+000
    outer loop
      vertex   -1.308100e+001 2.221230e+001 2.540000e+000
      vertex   -1.646778e+001 1.931971e+001 2.540000e+000
      vertex   1.646778e+001 1.931971e+001 2.540000e+000
    endloop
  endfacet
  facet normal 0.000000e+000 0.000000e+000 1.000000e+000
    outer loop
      vertex   -1.308100e+001 2.221230e+001 2.540000e+000
      vertex   -1.335004e+001 2.220173e+001 2.540000e+000
      vertex   -1.646778e+001 1.931971e+001 2.540000e+000
    endloop
  endfacet
  facet normal 0.000000e+000 -0.000000e+000 1.000000e+000
    outer loop
      vertex   -1.646778e+001 1.931971e+001 2.540000e+000
      vertex   -1.335004e+001 2.220173e+001 2.540000e+000
      vertex   -1.361741e+001 2.217008e+001 2.540000e+000
    endloop
  endfacet
  facet normal -0.000000e+000 0.000000e+000 1.000000e+000
    outer loop
      vertex   -1.388148e+001 2.211756e+001 2.540000e+000
      vertex   -1.646778e+001 1.931971e+001 2.540000e+000
      vertex   -1.361741e+001 2.217008e+001 2.540000e+000
    endloop
  endfacet
  facet normal 0.000000e+000 0.000000e+000 1.000000e+000
    outer loop
      vertex   -1.388148e+001 2.211756e+001 2.540000e+000
      vertex   -1.414062e+001 2.204447e+001 2.540000e+000
      vertex   -1.646778e+001 1.931971e+001 2.540000e+000
    endloop
  endfacet
  facet normal 0.000000e+000 -0.000000e+000 1.000000e+000
    outer loop
      vertex   -1.646778e+001 1.931971e+001 2.540000e+000
      vertex   -1.414062e+001 2.204447e+001 2.540000e+000
      vertex   -1.439322e+001 2.195128e+001 2.540000e+000
    endloop
  endfacet
  facet normal -0.000000e+000 0.000000e+000 1.000000e+000
    outer loop
      vertex   -1.463773e+001 2.183856e+001 2.540000e+000
      vertex   -1.646778e+001 1.931971e+001 2.540000e+000
      vertex   -1.439322e+001 2.195128e+001 2.540000e+000
    endloop
  endfacet
  facet normal 0.000000e+000 0.000000e+000 1.000000e+000
    outer loop
      vertex   -1.463773e+001 2.183856e+001 2.540000e+000
      vertex   -1.487265e+001 2.170700e+001 2.540000e+000
      vertex   -1.646778e+001 1.931971e+001 2.540000e+000
    endloop
  endfacet
  facet normal 0.000000e+000 -0.000000e+000 1.000000e+000
    outer loop
      vertex   -1.646778e+001 1.931971e+001 2.540000e+000
      vertex   -1.487265e+001 2.170700e+001 2.540000e+000
      vertex   -1.509652e+001 2.155742e+001 2.540000e+000
    endloop
  endfacet
  facet normal -0.000000e+000 0.000000e+000 1.000000e+000
    outer loop
      vertex   -1.530796e+001 2.139073e+001 2.540000e+000
      vertex   -1.646778e+001 1.931971e+001 2.540000e+000
      vertex   -1.509652e+001 2.155742e+001 2.540000e+000
    endloop
  endfacet
  facet normal 0.000000e+000 0.000000e+000 1.000000e+000
    outer loop
      vertex   -1.530796e+001 2.139073e+001 2.540000e+000
      vertex   -1.550567e+001 2.120797e+001 2.540000e+000
      vertex   -1.646778e+001 1.931971e+001 2.540000e+000
    endloop
  endfacet
  facet normal 0.000000e+000 -0.000000e+000 1.000000e+000
    outer loop
      vertex   -1.646778e+001 1.931971e+001 2.540000e+000
      vertex   -1.550567e+001 2.120797e+001 2.540000e+000
      vertex   -1.568843e+001 2.101026e+001 2.540000e+000
    endloop
  endfacet
  facet normal -0.000000e+000 0.000000e+000 1.000000e+000
    outer loop
      vertex   -1.585512e+001 2.079882e+001 2.540000e+000
      vertex   -1.646778e+001 1.931971e+001 2.540000e+000
      vertex   -1.568843e+001 2.101026e+001 2.540000e+000
    endloop
  endfacet
  facet normal 0.000000e+000 0.000000e+000 1.000000e+000
    outer loop
      vertex   -1.585512e+001 2.079882e+001 2.540000e+000
      vertex   -1.600470e+001 2.057495e+001 2.540000e+000
      vertex   -1.646778e+001 1.931971e+001 2.540000e+000
    endloop
  endfacet
  facet normal 0.000000e+000 -0.000000e+000 1.000000e+000
    outer loop
      vertex   -1.646778e+001 1.931971e+001 2.540000e+000
      vertex   -1.600470e+001 2.057495e+001 2.540000e+000
      vertex   -1.613626e+001 2.034003e+001 2.540000e+000
    endloop
  endfacet
  facet normal -0.000000e+000 0.000000e+000 1.000000e+000
    outer loop
      vertex   -1.624898e+001 2.009552e+001 2.540000e+000
      vertex   -1.646778e+001 1.931971e+001 2.540000e+000
      vertex   -1.613626e+001 2.034003e+001 2.540000e+000
    endloop
  endfacet
  facet normal 0.000000e+000 0.000000e+000 1.000000e+000
    outer loop
      vertex   -1.624898e+001 2.009552e+001 2.540000e+000
      vertex   -1.634217e+001 1.984292e+001 2.540000e+000
      vertex   -1.646778e+001 1.931971e+001 2.540000e+000
    endloop
  endfacet
  facet normal 0.000000e+000 -0.000000e+000 1.000000e+000
    outer loop
      vertex   -1.646778e+001 1.931971e+001 2.540000e+000
      vertex   -1.634217e+001 1.984292e+001 2.540000e+000
      vertex   -1.641526e+001 1.958378e+001 2.540000e+000
    endloop
  endfacet
  facet normal 0.000000e+000 -0.000000e+000 1.000000e+000
    outer loop
      vertex   -1.335004e+001 -2.220173e+001 2.540000e+000
      vertex   1.335004e+001 -2.220173e+001 2.540000e+000
      vertex   -1.361741e+001 -2.217008e+001 2.540000e+000
    endloop
  endfacet
  facet normal -0.000000e+000 -0.000000e+000 1.000000e+000
    outer loop
      vertex   -1.361741e+001 -2.217008e+001 2.540000e+000
      vertex   1.361741e+001 -2.217008e+001 2.540000e+000
      vertex   -1.388148e+001 -2.211756e+001 2.540000e+000
    endloop
  endfacet
  facet normal 0.000000e+000 -0.000000e+000 1.000000e+000
    outer loop
      vertex   -1.388148e+001 -2.211756e+001 2.540000e+000
      vertex   1.388148e+001 -2.211756e+001 2.540000e+000
      vertex   -1.414062e+001 -2.204447e+001 2.540000e+000
    endloop
  endfacet
  facet normal 0.000000e+000 -0.000000e+000 1.000000e+000
    outer loop
      vertex   -1.414062e+001 -2.204447e+001 2.540000e+000
      vertex   1.414062e+001 -2.204447e+001 2.540000e+000
      vertex   -1.439322e+001 -2.195128e+001 2.540000e+000
    endloop
  endfacet
  facet normal 0.000000e+000 -0.000000e+000 1.000000e+000
    outer loop
      vertex   -1.439322e+001 -2.195128e+001 2.540000e+000
      vertex   1.439322e+001 -2.195128e+001 2.540000e+000
      vertex   -1.463773e+001 -2.183856e+001 2.540000e+000
    endloop
  endfacet
  facet normal 0.000000e+000 -0.000000e+000 1.000000e+000
    outer loop
      vertex   -1.463773e+001 -2.183856e+001 2.540000e+000
      vertex   1.463773e+001 -2.183856e+001 2.540000e+000
      vertex   -1.487265e+001 -2.170700e+001 2.540000e+000
    endloop
  endfacet
  facet normal 0.000000e+000 -0.000000e+000 1.000000e+000
    outer loop
      vertex   -1.487265e+001 -2.170700e+001 2.540000e+000
      vertex   1.487265e+001 -2.170700e+001 2.540000e+000
      vertex   -1.509652e+001 -2.155742e+001 2.540000e+000
    endloop
  endfacet
  facet normal 0.000000e+000 -0.000000e+000 1.000000e+000
    outer loop
      vertex   -1.509652e+001 -2.155742e+001 2.540000e+000
      vertex   1.509652e+001 -2.155742e+001 2.540000e+000
      vertex   -1.530796e+001 -2.139073e+001 2.540000e+000
    endloop
  endfacet
  facet normal 0.000000e+000 -0.000000e+000 1.000000e+000
    outer loop
      vertex   -1.530796e+001 -2.139073e+001 2.540000e+000
      vertex   1.530796e+001 -2.139073e+001 2.540000e+000
      vertex   -1.550567e+001 -2.120797e+001 2.540000e+000
    endloop
  endfacet
  facet normal 0.000000e+000 -0.000000e+000 1.000000e+000
    outer loop
      vertex   -1.550567e+001 -2.120797e+001 2.540000e+000
      vertex   1.550567e+001 -2.120797e+001 2.540000e+000
      vertex   -1.568843e+001 -2.101026e+001 2.540000e+000
    endloop
  endfacet
  facet normal 0.000000e+000 -0.000000e+000 1.000000e+000
    outer loop
      vertex   -1.568843e+001 -2.101026e+001 2.540000e+000
      vertex   1.568843e+001 -2.101026e+001 2.540000e+000
      vertex   -1.585512e+001 -2.079882e+001 2.540000e+000
    endloop
  endfacet
  facet normal 0.000000e+000 -0.000000e+000 1.000000e+000
    outer loop
      vertex   -1.585512e+001 -2.079882e+001 2.540000e+000
      vertex   1.585512e+001 -2.079882e+001 2.540000e+000
      vertex   -1.600470e+001 -2.057495e+001 2.540000e+000
    endloop
  endfacet
  facet normal 0.000000e+000 -0.000000e+000 1.000000e+000
    outer loop
      vertex   -1.600470e+001 -2.057495e+001 2.540000e+000
      vertex   1.600470e+001 -2.057495e+001 2.540000e+000
      vertex   -1.613626e+001 -2.034003e+001 2.540000e+000
    endloop
  endfacet
  facet normal 0.000000e+000 -0.000000e+000 1.000000e+000
    outer loop
      vertex   -1.613626e+001 -2.034003e+001 2.540000e+000
      vertex   1.613626e+001 -2.034003e+001 2.540000e+000
      vertex   -1.624898e+001 -2.009552e+001 2.540000e+000
    endloop
  endfacet
  facet normal 0.000000e+000 -0.000000e+000 1.000000e+000
    outer loop
      vertex   -1.624898e+001 -2.009552e+001 2.540000e+000
      vertex   1.624898e+001 -2.009552e+001 2.540000e+000
      vertex   -1.634217e+001 -1.984292e+001 2.540000e+000
    endloop
  endfacet
  facet normal 0.000000e+000 -0.000000e+000 1.000000e+000
    outer loop
      vertex   -1.634217e+001 -1.984292e+001 2.540000e+000
      vertex   1.634217e+001 -1.984292e+001 2.540000e+000
      vertex   -1.641526e+001 -1.958378e+001 2.540000e+000
    endloop
  endfacet
  facet normal 0.000000e+000 -0.000000e+000 1.000000e+000
    outer loop
      vertex   -1.641526e+001 -1.958378e+001 2.540000e+000
      vertex   1.641526e+001 -1.958378e+001 2.540000e+000
      vertex   -1.646778e+001 -1.931971e+001 2.540000e+000
    endloop
  endfacet
  facet normal 0.000000e+000 -0.000000e+000 1.000000e+000
    outer loop
      vertex   -1.646778e+001 -1.931971e+001 2.540000e+000
      vertex   1.646778e+001 -1.931971e+001 2.540000e+000
      vertex   -1.649943e+001 -1.905234e+001 2.540000e+000
    endloop
  endfacet
  facet normal 0.000000e+000 -0.000000e+000 1.000000e+000
    outer loop
      vertex   -1.649943e+001 -1.905234e+001 2.540000e+000
      vertex   1.649943e+001 -1.905234e+001 2.540000e+000
      vertex   -1.651000e+001 -1.878330e+001 2.540000e+000
    endloop
  endfacet
  facet normal 0.000000e+000 -0.000000e+000 1.000000e+000
    outer loop
      vertex   -1.651000e+001 -1.878330e+001 2.540000e+000
      vertex   1.651000e+001 -1.878330e+001 2.540000e+000
      vertex   -1.651000e+001 1.878330e+001 2.540000e+000
    endloop
  endfacet
  facet normal 0.000000e+000 -0.000000e+000 1.000000e+000
    outer loop
      vertex   -1.651000e+001 1.878330e+001 2.540000e+000
      vertex   1.651000e+001 1.878330e+001 2.540000e+000
      vertex   -1.649943e+001 1.905234e+001 2.540000e+000
    endloop
  endfacet
  facet normal 0.000000e+000 -0.000000e+000 1.000000e+000
    outer loop
      vertex   -1.649943e+001 1.905234e+001 2.540000e+000
      vertex   1.649943e+001 1.905234e+001 2.540000e+000
      vertex   -1.646778e+001 1.931971e+001 2.540000e+000
    endloop
  endfacet
  facet normal 0.000000e+000 0.000000e+000 1.000000e+000
    outer loop
      vertex   1.641526e+001 1.958378e+001 2.540000e+000
      vertex   1.634217e+001 1.984292e+001 2.540000e+000
      vertex   1.646778e+001 1.931971e+001 2.540000e+000
    endloop
  endfacet
  facet normal 0.000000e+000 0.000000e+000 1.000000e+000
    outer loop
      vertex   1.646778e+001 1.931971e+001 2.540000e+000
      vertex   1.634217e+001 1.984292e+001 2.540000e+000
      vertex   1.624898e+001 2.009552e+001 2.540000e+000
    endloop
  endfacet
  facet normal -0.000000e+000 -0.000000e+000 1.000000e+000
    outer loop
      vertex   1.613626e+001 2.034003e+001 2.540000e+000
      vertex   1.646778e+001 1.931971e+001 2.540000e+000
      vertex   1.624898e+001 2.009552e+001 2.540000e+000
    endloop
  endfacet
  facet normal 0.000000e+000 0.000000e+000 1.000000e+000
    outer loop
      vertex   1.613626e+001 2.034003e+001 2.540000e+000
      vertex   1.600470e+001 2.057495e+001 2.540000e+000
      vertex   1.646778e+001 1.931971e+001 2.540000e+000
    endloop
  endfacet
  facet normal 0.000000e+000 0.000000e+000 1.000000e+000
    outer loop
      vertex   1.646778e+001 1.931971e+001 2.540000e+000
      vertex   1.600470e+001 2.057495e+001 2.540000e+000
      vertex   1.585512e+001 2.079882e+001 2.540000e+000
    endloop
  endfacet
  facet normal -0.000000e+000 -0.000000e+000 1.000000e+000
    outer loop
      vertex   1.568843e+001 2.101026e+001 2.540000e+000
      vertex   1.646778e+001 1.931971e+001 2.540000e+000
      vertex   1.585512e+001 2.079882e+001 2.540000e+000
    endloop
  endfacet
  facet normal 0.000000e+000 0.000000e+000 1.000000e+000
    outer loop
      vertex   1.568843e+001 2.101026e+001 2.540000e+000
      vertex   1.550567e+001 2.120797e+001 2.540000e+000
      vertex   1.646778e+001 1.931971e+001 2.540000e+000
    endloop
  endfacet
  facet normal 0.000000e+000 0.000000e+000 1.000000e+000
    outer loop
      vertex   1.646778e+001 1.931971e+001 2.540000e+000
      vertex   1.550567e+001 2.120797e+001 2.540000e+000
      vertex   1.530796e+001 2.139073e+001 2.540000e+000
    endloop
  endfacet
  facet normal -0.000000e+000 -0.000000e+000 1.000000e+000
    outer loop
      vertex   1.509652e+001 2.155742e+001 2.540000e+000
      vertex   1.646778e+001 1.931971e+001 2.540000e+000
      vertex   1.530796e+001 2.139073e+001 2.540000e+000
    endloop
  endfacet
  facet normal 0.000000e+000 0.000000e+000 1.000000e+000
    outer loop
      vertex   1.509652e+001 2.155742e+001 2.540000e+000
      vertex   1.487265e+001 2.170700e+001 2.540000e+000
      vertex   1.646778e+001 1.931971e+001 2.540000e+000
    endloop
  endfacet
  facet normal 0.000000e+000 0.000000e+000 1.000000e+000
    outer loop
      vertex   1.646778e+001 1.931971e+001 2.540000e+000
      vertex   1.487265e+001 2.170700e+001 2.540000e+000
      vertex   1.463773e+001 2.183856e+001 2.540000e+000
    endloop
  endfacet
  facet normal -0.000000e+000 -0.000000e+000 1.000000e+000
    outer loop
      vertex   1.439322e+001 2.195128e+001 2.540000e+000
      vertex   1.646778e+001 1.931971e+001 2.540000e+000
      vertex   1.463773e+001 2.183856e+001 2.540000e+000
    endloop
  endfacet
  facet normal 0.000000e+000 0.000000e+000 1.000000e+000
    outer loop
      vertex   1.439322e+001 2.195128e+001 2.540000e+000
      vertex   1.414062e+001 2.204447e+001 2.540000e+000
      vertex   1.646778e+001 1.931971e+001 2.540000e+000
    endloop
  endfacet
  facet normal 0.000000e+000 0.000000e+000 1.000000e+000
    outer loop
      vertex   1.646778e+001 1.931971e+001 2.540000e+000
      vertex   1.414062e+001 2.204447e+001 2.540000e+000
      vertex   1.388148e+001 2.211756e+001 2.540000e+000
    endloop
  endfacet
  facet normal -0.000000e+000 -0.000000e+000 1.000000e+000
    outer loop
      vertex   1.361741e+001 2.217008e+001 2.540000e+000
      vertex   1.646778e+001 1.931971e+001 2.540000e+000
      vertex   1.388148e+001 2.211756e+001 2.540000e+000
    endloop
  endfacet
  facet normal 0.000000e+000 0.000000e+000 1.000000e+000
    outer loop
      vertex   1.361741e+001 2.217008e+001 2.540000e+000
      vertex   1.335004e+001 2.220173e+001 2.540000e+000
      vertex   1.646778e+001 1.931971e+001 2.540000e+000
    endloop
  endfacet
  facet normal 0.000000e+000 0.000000e+000 1.000000e+000
    outer loop
      vertex   1.646778e+001 1.931971e+001 2.540000e+000
      vertex   1.335004e+001 2.220173e+001 2.540000e+000
      vertex   1.308100e+001 2.221230e+001 2.540000e+000
    endloop
  endfacet
endsolid
